<?xml version="1.0" encoding="UTF-8"?>
<svg version="1.1" xmlns="http://www.w3.org/2000/svg" width="445" height="445">
<path d="M0 0 C0.75925781 0.08765625 1.51851562 0.1753125 2.30078125 0.265625 C6.15067296 0.75107544 9.0564068 1.40354844 12.5 3.25 C14.56643299 3.45302867 14.56643299 3.45302867 16.625 3.3125 C20.5 3.25 20.5 3.25 22.5 4.25 C22.83 3.59 23.16 2.93 23.5 2.25 C27.72756005 9.13288702 27.72756005 9.13288702 26.8125 13.625 C26.04166667 15.16666667 25.27083333 16.70833333 24.5 18.25 C22.43359375 18.8828125 22.43359375 18.8828125 19.9375 19.375 C19.11121094 19.54257813 18.28492188 19.71015625 17.43359375 19.8828125 C16.79550781 20.00398438 16.15742187 20.12515625 15.5 20.25 C15.995 21.178125 16.49 22.10625 17 23.0625 C18.5 26.25 18.5 26.25 18.5 29.25 C19.78197266 29.23259766 19.78197266 29.23259766 21.08984375 29.21484375 C22.19457031 29.20582031 23.29929688 29.19679687 24.4375 29.1875 C25.53964844 29.17589844 26.64179687 29.16429687 27.77734375 29.15234375 C30.5 29.25 30.5 29.25 31.5 30.25 C31.57258946 32.43639453 31.58373783 34.62500389 31.5625 36.8125 C31.55347656 38.01003906 31.54445313 39.20757812 31.53515625 40.44140625 C31.52355469 41.36824219 31.51195313 42.29507813 31.5 43.25 C30.84 43.25 30.18 43.25 29.5 43.25 C29.4175 43.95125 29.335 44.6525 29.25 45.375 C28.32391569 48.92498987 26.62874711 51.28265554 24.5 54.25 C23.84 55.24 23.18 56.23 22.5 57.25 C21.84 57.25 21.18 57.25 20.5 57.25 C20.5 57.91 20.5 58.57 20.5 59.25 C19.2934375 59.5903125 19.2934375 59.5903125 18.0625 59.9375 C17.216875 60.370625 16.37125 60.80375 15.5 61.25 C14.82852082 63.69063441 14.82852082 63.69063441 14.5 66.25 C13.4375 68.0625 13.4375 68.0625 11.5 69.25 C7.97442198 69.78730103 4.73955381 69.99373229 1.625 68.125 C0.08978143 65.56630238 -0.77680295 63.14278822 -1.5 60.25 C-0.5 57.25 -0.5 57.25 2.5 55.25 C-1.13 54.92 -4.76 54.59 -8.5 54.25 C-11.47 58.705 -11.47 58.705 -14.5 63.25 C-19.93807249 62.87059959 -21.96360888 61.31684979 -25.5 57.25 C-26.00789063 56.73179687 -26.51578125 56.21359375 -27.0390625 55.6796875 C-32.89258378 49.48014525 -34.46007472 42.41956567 -35.875 34.1953125 C-36.35685405 32.13667718 -36.35685405 32.13667718 -38.09765625 30.80859375 C-39.5 29.25 -39.5 29.25 -39.49609375 26.83984375 C-39.31175781 25.96457031 -39.12742188 25.08929688 -38.9375 24.1875 C-38.68806641 22.87072266 -38.68806641 22.87072266 -38.43359375 21.52734375 C-37.5 19.25 -37.5 19.25 -35.53515625 17.87890625 C-33.5 17.25 -33.5 17.25 -31.5 18.25 C-30.345 18.683125 -29.19 19.11625 -28 19.5625 C-24.5 21.25 -24.5 21.25 -23.0625 23.0625 C-22.29488539 26.04766794 -22.06055009 28.17385065 -22.5 31.25 C-25 34.125 -25 34.125 -27.5 36.25 C-25.95021912 41.29503138 -24.3868116 45.78856389 -21.5 50.25 C-21.17 51.24 -20.84 52.23 -20.5 53.25 C-18.52 53.25 -16.54 53.25 -14.5 53.25 C-14.5 52.26 -14.5 51.27 -14.5 50.25 C-15.0775 49.734375 -15.655 49.21875 -16.25 48.6875 C-20.04571017 44.57548065 -22.32659304 39.43762796 -22.6328125 33.80859375 C-22.15610241 28.17388047 -20.57662383 23.32662383 -16.5 19.25 C-16.77455189 16.59599838 -17.61506614 15.07049682 -19.0625 12.8125 C-20.64210846 9.99667622 -20.7717471 8.42038287 -20.5 5.25 C-19.18 5.25 -17.86 5.25 -16.5 5.25 C-16.17 4.26 -15.84 3.27 -15.5 2.25 C-14.51 1.92 -13.52 1.59 -12.5 1.25 C-11.9534375 0.88390625 -11.406875 0.5178125 -10.84375 0.140625 C-7.2138612 -1.23873275 -3.75480692 -0.50999075 0 0 Z M-10.42578125 8.76953125 C-10.78027344 9.25808594 -11.13476562 9.74664062 -11.5 10.25 C-11.17 11.24 -10.84 12.23 -10.5 13.25 C-9.40300781 13.29898438 -8.30601563 13.34796875 -7.17578125 13.3984375 C-5.72133075 13.47350591 -4.26690484 13.54905197 -2.8125 13.625 C-2.09126953 13.6559375 -1.37003906 13.686875 -0.62695312 13.71875 C3.50130815 13.9449561 6.68952635 14.510897 10.5 16.25 C11.16 16.25 11.82 16.25 12.5 16.25 C12.17 13.94 11.84 11.63 11.5 9.25 C6.97796838 7.51182245 3.15021081 6.95305534 -1.6875 6.9375 C-2.89792969 6.92074219 -4.10835937 6.90398437 -5.35546875 6.88671875 C-8.4919755 6.97012168 -8.4919755 6.97012168 -10.42578125 8.76953125 Z M19.5 10.25 C20.5 12.25 20.5 12.25 20.5 12.25 Z M12.5 16.25 C12.83 17.24 13.16 18.23 13.5 19.25 C13.5 18.26 13.5 17.27 13.5 16.25 C13.17 16.25 12.84 16.25 12.5 16.25 Z M-14.5 26.25 C-16.33965695 29.71572077 -16.85341366 32.57877271 -16.0390625 36.4296875 C-14.33567846 41.42994386 -12.28860562 44.15244655 -7.75 46.9375 C-3.99172897 48.4552633 -1.52078914 48.68863154 2.5 48.25 C5.37391821 47.07725006 5.37391821 47.07725006 7.5 45.25 C7.83 44.26 8.16 43.27 8.5 42.25 C9.139375 42.0025 9.77875 41.755 10.4375 41.5 C12.82230218 40.31803122 12.82230218 40.31803122 13.9375 37.125 C14.66427905 32.11829989 13.57581101 29.80081644 11.5 25.25 C10.84 25.25 10.18 25.25 9.5 25.25 C9.2525 24.63125 9.005 24.0125 8.75 23.375 C7.2366703 20.80233952 6.23339048 20.36164296 3.5 19.25 C-4.43496676 17.72508292 -9.60869974 19.85368428 -14.5 26.25 Z M-31.5 27.25 C-31.17 27.91 -30.84 28.57 -30.5 29.25 C-30.17 28.59 -29.84 27.93 -29.5 27.25 C-30.16 27.25 -30.82 27.25 -31.5 27.25 Z M21.5 35.25 C18.21779105 36.89110448 17.75429211 39.94322988 16.5 43.25 C16.5 44.24 16.5 45.23 16.5 46.25 C15.51 46.58 14.52 46.91 13.5 47.25 C13.5 47.91 13.5 48.57 13.5 49.25 C12.71625 49.559375 11.9325 49.86875 11.125 50.1875 C8.57669872 51.17875038 8.57669872 51.17875038 6.5 52.25 C6.5 52.91 6.5 53.57 6.5 54.25 C9.52747254 54.91617588 12.39459967 55.36443686 15.5 55.25 C19.12922459 52.75490809 20.26428453 51.21099384 21.3125 46.9375 C21.4053125 45.6071875 21.4053125 45.6071875 21.5 44.25 C22.16 44.25 22.82 44.25 23.5 44.25 C24.86741555 41.99778616 25.54066478 40.72442242 25.3125 38.0625 C25.044375 37.464375 24.77625 36.86625 24.5 36.25 C23.51 35.92 22.52 35.59 21.5 35.25 Z M8.5 61.25 C9.5 63.25 9.5 63.25 9.5 63.25 Z M6.5 62.25 C6.5 62.91 6.5 63.57 6.5 64.25 C7.16 63.92 7.82 63.59 8.5 63.25 C7.84 62.92 7.18 62.59 6.5 62.25 Z " fill="#3E0C5F" transform="translate(80.5,194.75)"/>
<path d="M0 0 C2.41116504 5.97283522 4.76286232 11.95972825 7 18 C9.68423171 13.27063936 10.99187751 8.5763772 12.25390625 3.29296875 C12.50011719 2.53628906 12.74632812 1.77960938 13 1 C15.54741032 -0.27370516 17.728535 -0.36635913 20.5625 -0.625 C21.55378906 -0.72039062 22.54507813 -0.81578125 23.56640625 -0.9140625 C24.36949219 -0.94242188 25.17257812 -0.97078125 26 -1 C27.82262796 0.82262796 27.34665757 3.69863374 27.5 6.16015625 C27.5825 7.42923828 27.665 8.69832031 27.75 10.00585938 C27.83366439 11.35805247 27.91699512 12.71026626 28 14.0625 C28.69800398 25.5604505 28.69800398 25.5604505 30 37 C27.03 37.66 24.06 38.32 21 39 C19.13905228 31.6802723 18.44238385 24.53216715 18 17 C17.79318604 17.60062256 17.58637207 18.20124512 17.37329102 18.82006836 C16.43935884 21.52692429 15.50099105 24.23222148 14.5625 26.9375 C14.23701172 27.88302734 13.91152344 28.82855469 13.57617188 29.80273438 C13.26357422 30.70185547 12.95097656 31.60097656 12.62890625 32.52734375 C12.34088135 33.35999756 12.05285645 34.19265137 11.75610352 35.05053711 C11 37 11 37 10 38 C8.00041636 38.04080783 5.99954746 38.04254356 4 38 C1.53062327 31.7677635 -0.3186083 25.48707154 -2 19 C-2.66 19 -3.32 19 -4 19 C-3.979375 20.299375 -3.95875 21.59875 -3.9375 22.9375 C-3.9375 27.65161104 -4.15985446 32.35326912 -5 37 C-6 38 -6 38 -7.8125 38.1328125 C-8.534375 38.13023437 -9.25625 38.12765625 -10 38.125 C-10.721875 38.12757813 -11.44375 38.13015625 -12.1875 38.1328125 C-14 38 -14 38 -15 37 C-14.96058851 33.96531518 -14.85427538 30.96600808 -14.6875 27.9375 C-14.63827393 27.04240723 -14.58904785 26.14731445 -14.53833008 25.22509766 C-14.19456442 19.43195268 -13.79327657 13.64702204 -13.1875 7.875 C-13.05730469 6.59367188 -12.92710937 5.31234375 -12.79296875 3.9921875 C-12 1 -12 1 -10.19140625 -0.453125 C-6.57516389 -1.35557407 -3.65595721 -0.6093262 0 0 Z M7 19 C8 21 8 21 8 21 Z " fill="#380759" transform="translate(383,198)"/>
<path d="M0 0 C9.19261214 2.12137203 9.19261214 2.12137203 12.125 5.3125 C13.18040038 8.55408688 13.56403607 10.6157836 13 14 C10.5 16.875 10.5 16.875 8 19 C9.54978088 24.04503138 11.1131884 28.53856389 14 33 C14.33 33.99 14.66 34.98 15 36 C16.98 36 18.96 36 21 36 C21.33 35.34 21.66 34.68 22 34 C22.66 34.66 23.32 35.32 24 36 C26.64 35.01 29.28 34.02 32 33 C31.01 32.505 31.01 32.505 30 32 C30.33 31.34 30.66 30.68 31 30 C32.051875 30.061875 33.10375 30.12375 34.1875 30.1875 C39.2225808 29.93987308 41.58715314 28.50114979 45 24.875 C47.32965058 22.69095258 48.8728345 22.34746283 52 22 C52 21.34 52 20.68 52 20 C52.99 20 53.98 20 55 20 C53.57558289 26.67695521 51.48665811 30.12369303 45.83984375 34.00390625 C44 35 44 35 42 35 C42 35.66 42 36.32 42 37 C43.43739513 37.02712066 44.87493863 37.04645067 46.3125 37.0625 C47.11300781 37.07410156 47.91351563 37.08570313 48.73828125 37.09765625 C51.16861334 37.09657855 51.16861334 37.09657855 54 36 C55.02281518 33.90280128 55.02281518 33.90280128 55.6875 31.4375 C55.93886719 30.61121094 56.19023438 29.78492188 56.44921875 28.93359375 C56.63097656 28.29550781 56.81273437 27.65742188 57 27 C57.66 27 58.32 27 59 27 C58.8453125 25.63875 58.8453125 25.63875 58.6875 24.25 C59 21 59 21 61.5 18.625 C62.325 18.08875 63.15 17.5525 64 17 C63.34 16.67 62.68 16.34 62 16 C62 15.34 62 14.68 62 14 C63.65 14 65.3 14 67 14 C67 17.96 67 21.92 67 26 C66.34 26 65.68 26 65 26 C64.9175 26.70125 64.835 27.4025 64.75 28.125 C63.82391569 31.67498987 62.12874711 34.03265554 60 37 C59.34 37.99 58.68 38.98 58 40 C57.34 40 56.68 40 56 40 C56 40.66 56 41.32 56 42 C54.7934375 42.3403125 54.7934375 42.3403125 53.5625 42.6875 C52.716875 43.120625 51.87125 43.55375 51 44 C50.32852082 46.44063441 50.32852082 46.44063441 50 49 C48.9375 50.8125 48.9375 50.8125 47 52 C43.47442198 52.53730103 40.23955381 52.74373229 37.125 50.875 C35.58978143 48.31630238 34.72319705 45.89278822 34 43 C35 40 35 40 38 38 C34.37 37.67 30.74 37.34 27 37 C24.03 41.455 24.03 41.455 21 46 C15.56192751 45.62059959 13.53639112 44.06684979 10 40 C9.49210937 39.48179687 8.98421875 38.96359375 8.4609375 38.4296875 C2.60741622 32.23014525 1.03992528 25.16956567 -0.375 16.9453125 C-0.85659753 14.88514178 -0.85659753 14.88514178 -2.60546875 13.55859375 C-4 12 -4 12 -3.92578125 9.58984375 C-3.72339844 8.71457031 -3.52101562 7.83929688 -3.3125 6.9375 C-3.12300781 6.05964844 -2.93351562 5.18179688 -2.73828125 4.27734375 C-2 2 -2 2 0 0 Z M4 10 C4.33 10.66 4.66 11.32 5 12 C5.33 11.34 5.66 10.68 6 10 C5.34 10 4.68 10 4 10 Z M44 44 C45 46 45 46 45 46 Z M42 45 C42 45.66 42 46.32 42 47 C42.66 46.67 43.32 46.34 44 46 C43.34 45.67 42.68 45.34 42 45 Z " fill="#370B52" transform="translate(45,212)"/>
<path d="M0 0 C3.63388216 2.76080658 6.57564239 5.23020948 8.21875 9.578125 C8.21875 10.898125 8.21875 12.218125 8.21875 13.578125 C8.87875 13.908125 9.53875 14.238125 10.21875 14.578125 C9.13080881 22.62316381 7.89964533 28.25634141 1.65625 33.890625 C-3.65764261 37.56947373 -9.5542125 37.12223507 -15.78125 36.578125 C-20.55123147 35.39845216 -24.48691634 33.99012536 -27.84375 30.328125 C-30.60231805 22.23632538 -30.08770966 14.52053856 -26.46875 6.765625 C-20.0774851 -1.51934802 -10.05033197 -5.13809106 0 0 Z M-17.28125 9.078125 C-19.34773876 12.52227294 -19.86084533 15.58243947 -19.78125 19.578125 C-18.86521639 23.01325102 -17.7033605 25.49090321 -14.78125 27.578125 C-11.50625374 28.50366742 -9.40043345 28.73652077 -6.09375 27.890625 C-3.38845636 26.35518807 -2.26238348 25.31822194 -0.78125 22.578125 C0.28643444 18.4599136 0.48073333 16.27238082 -1.03125 12.265625 C-2.66442124 9.37104251 -2.66442124 9.37104251 -5.78125 7.578125 C-9.98113338 6.9129501 -13.5971112 6.86764172 -17.28125 9.078125 Z " fill="#38065C" transform="translate(348.78125,199.421875)"/>
<path d="M0 0 C2.64 0.66 5.28 1.32 8 2 C8.33 5.96 8.66 9.92 9 14 C12.03547561 10.96452439 13.86650156 8.72286694 16.125 5.25 C18.23962537 2.43510653 19.19829387 1.17438571 22.67578125 0.41796875 C25.17649503 0.43565414 27.53350581 0.59801604 30 1 C30.495 1.99 30.495 1.99 31 3 C30.34 3 29.68 3 29 3 C28.76539063 3.70511719 28.53078125 4.41023437 28.2890625 5.13671875 C26.76047677 8.53203191 24.77280427 10.96938922 22.375 13.8125 C21.55773437 14.78832031 20.74046875 15.76414063 19.8984375 16.76953125 C19.27195313 17.50558594 18.64546875 18.24164063 18 19 C20.77725536 23.24232126 23.69152185 27.32701422 26.75 31.375 C27.16121094 31.92027344 27.57242188 32.46554688 27.99609375 33.02734375 C28.9959115 34.35268356 29.99774159 35.67650492 31 37 C30.505 37.99 30.505 37.99 30 39 C26.51815578 39.56746355 23.46313646 39.75219728 20 39 C17.0293916 36.38564537 15.08369914 33.33834027 13 30 C12.44183594 29.28328125 11.88367188 28.5665625 11.30859375 27.828125 C10 26 10 26 10 24 C9.34 24 8.68 24 8 24 C7.97305149 25.95825873 7.95362782 27.91662226 7.9375 29.875 C7.92589844 30.96554688 7.91429687 32.05609375 7.90234375 33.1796875 C7.80255697 35.95177546 7.80255697 35.95177546 9 38 C4.66726186 38.92844389 1.33273814 38.92844389 -3 38 C-2.01 37.505 -2.01 37.505 -1 37 C-1.495 19.675 -1.495 19.675 -2 2 C-1.34 2 -0.68 2 0 2 C0 1.34 0 0.68 0 0 Z " fill="#380B59" transform="translate(171,197)"/>
<path d="M0 0 C1.37478516 0.01740234 1.37478516 0.01740234 2.77734375 0.03515625 C3.69644531 0.04417969 4.61554688 0.05320313 5.5625 0.0625 C6.27277344 0.07410156 6.98304688 0.08570313 7.71484375 0.09765625 C10.62004658 6.67258896 13.16121003 13.37976361 15.71484375 20.09765625 C16.15183594 21.23654297 16.15183594 21.23654297 16.59765625 22.3984375 C18.44600827 27.2527936 20.10353753 32.16088826 21.71484375 37.09765625 C18.03874598 38.04293853 15.32668624 38.39421509 11.71484375 37.09765625 C11.19921875 36.27265625 10.68359375 35.44765625 10.15234375 34.59765625 C6.19955177 30.54351063 1.15771151 31.1917939 -4.28515625 31.09765625 C-4.59453125 32.06703125 -4.90390625 33.03640625 -5.22265625 34.03515625 C-6.28515625 37.09765625 -6.28515625 37.09765625 -7.28515625 38.09765625 C-10.72265625 38.28515625 -10.72265625 38.28515625 -14.28515625 38.09765625 C-14.94515625 37.43765625 -15.60515625 36.77765625 -16.28515625 36.09765625 C-15.84945312 34.99550781 -15.41375 33.89335937 -14.96484375 32.7578125 C-11.52177894 24.00045202 -8.19805417 15.22280121 -5.15185547 6.31860352 C-3.01718161 0.12893938 -3.01718161 0.12893938 0 0 Z M2.71484375 12.09765625 C2.04594055 13.57581287 1.37978016 15.05521097 0.71484375 16.53515625 C0.15796875 17.77072266 0.15796875 17.77072266 -0.41015625 19.03125 C-1.35014357 20.87712617 -1.35014357 20.87712617 -1.28515625 22.09765625 C1.35484375 22.09765625 3.99484375 22.09765625 6.71484375 22.09765625 C5.72484375 18.79765625 4.73484375 15.49765625 3.71484375 12.09765625 C3.38484375 12.09765625 3.05484375 12.09765625 2.71484375 12.09765625 Z " fill="#360957" transform="translate(224.28515625,197.90234375)"/>
<path d="M0 0 C3.08918667 3.011957 4.09824272 5.38797898 5.5 9.4375 C3.875 11.0625 3.875 11.0625 1.5 12.4375 C-2.71995552 11.5935089 -4.07623483 11.07314775 -6.5 7.4375 C-10.08357241 7.18734127 -10.08357241 7.18734127 -13.5 7.4375 C-12.94528783 9.41515714 -12.94528783 9.41515714 -11.5 11.4375 C-8.52039447 12.90572284 -8.52039447 12.90572284 -5.0625 14 C2.47436716 16.56842959 2.47436716 16.56842959 4.5 19.4375 C5.72668947 23.58339985 5.95359553 27.27831142 4.375 31.3125 C1.53023492 34.53656709 -1.09195986 36.2612581 -5.40234375 36.80078125 C-16.71923808 36.6114381 -16.71923808 36.6114381 -20.5 34.4375 C-22.95030477 31.30912348 -24.5 28.49641491 -24.5 24.4375 C-23.21073008 24.07470544 -21.91846728 23.72253302 -20.625 23.375 C-19.90570313 23.17777344 -19.18640625 22.98054688 -18.4453125 22.77734375 C-16.5 22.4375 -16.5 22.4375 -14.5 23.4375 C-14.21125 24.0975 -13.9225 24.7575 -13.625 25.4375 C-12.68102202 27.59478862 -12.68102202 27.59478862 -10.5625 28.25 C-8.30257287 28.59436809 -8.30257287 28.59436809 -5.5 27.4375 C-5.5 26.1175 -5.5 24.7975 -5.5 23.4375 C-6.83804688 22.94830078 -6.83804688 22.94830078 -8.203125 22.44921875 C-9.37359375 22.01222656 -10.5440625 21.57523438 -11.75 21.125 C-12.91015625 20.69574219 -14.0703125 20.26648438 -15.265625 19.82421875 C-18.15799481 18.58413266 -20.26444928 17.63087052 -22.5 15.4375 C-23.328125 13.17578125 -23.328125 13.17578125 -23.75 10.75 C-23.89953125 9.94175781 -24.0490625 9.13351563 -24.203125 8.30078125 C-24.30109375 7.68589844 -24.3990625 7.07101563 -24.5 6.4375 C-23.84 6.4375 -23.18 6.4375 -22.5 6.4375 C-22.29375 5.674375 -22.0875 4.91125 -21.875 4.125 C-17.89215251 -3.65965646 -7.009432 -3.12921071 0 0 Z " fill="#380A5B" transform="translate(152.5,199.5625)"/>
<path d="M0 0 C3.00727783 7.23026373 5.59326535 14.54936402 8 22 C10.65952026 17.99133535 12.15952037 13.87550317 13.5625 9.3125 C15.73140496 2.26859504 15.73140496 2.26859504 18 0 C20.68839385 -0.26991906 23.29141936 -0.08737357 26 0 C27.28237369 3.84712106 26.4586 4.98010949 24.9375 8.6875 C24.47472656 9.83734375 24.01195312 10.9871875 23.53515625 12.171875 C23.16028076 13.09709961 23.16028076 13.09709961 22.77783203 14.04101562 C21.14936659 18.14233599 19.65544852 22.29641654 18.14428711 26.44213867 C16.66457775 30.43639342 14.97203077 34.22513636 13 38 C10.03 38 7.06 38 4 38 C3.01 36.02 2.02 34.04 1 32 C0.34 32 -0.32 32 -1 32 C-1.33333333 30.66666667 -1.66666667 29.33333333 -2 28 C-2.15855469 27.38253906 -2.31710937 26.76507813 -2.48046875 26.12890625 C-3.00234683 23.99038331 -3.43817166 21.84481889 -3.875 19.6875 C-4.78554562 15.53568379 -6.27157713 11.88895146 -8 8 C-8.74274689 5.68062475 -9.37516079 3.35516319 -10 1 C-6.78548731 -0.60725635 -3.56387464 -0.05748185 0 0 Z " fill="#350E4F" transform="translate(285,198)"/>
<path d="M0 0 C3.63388216 2.76080658 6.57564239 5.23020948 8.21875 9.578125 C8.21875 10.898125 8.21875 12.218125 8.21875 13.578125 C8.87875 13.908125 9.53875 14.238125 10.21875 14.578125 C9.1841197 22.22894378 8.19130456 28.26766286 1.96875 33.453125 C1.39125 33.824375 0.81375 34.195625 0.21875 34.578125 C-0.11125 33.918125 -0.44125 33.258125 -0.78125 32.578125 C-0.12125 31.588125 0.53875 30.598125 1.21875 29.578125 C1.87875 29.578125 2.53875 29.578125 3.21875 29.578125 C3.41791016 28.67320312 3.41791016 28.67320312 3.62109375 27.75 C3.79769531 26.95078125 3.97429687 26.1515625 4.15625 25.328125 C4.33027344 24.53921875 4.50429688 23.7503125 4.68359375 22.9375 C5.02679657 21.42440145 5.40059705 19.91773306 5.8125 18.421875 C6.30501095 16.186633 5.91157812 14.73359027 5.21875 12.578125 C3.72053941 15.94909883 3.21875 17.78254619 3.21875 21.578125 C2.55875 21.578125 1.89875 21.578125 1.21875 21.578125 C1.21875 20.588125 1.21875 19.598125 1.21875 18.578125 C0.55875 18.248125 -0.10125 17.918125 -0.78125 17.578125 C-1.2453125 15.8765625 -1.2453125 15.8765625 -1.71875 14.140625 C-2.43746357 10.34595502 -2.43746357 10.34595502 -5.78125 8.578125 C-7.96153396 8.22519049 -7.96153396 8.22519049 -10.28125 8.265625 C-11.0546875 8.24886719 -11.828125 8.23210937 -12.625 8.21484375 C-15.32665476 8.67001385 -16.1639582 9.39353699 -17.78125 11.578125 C-19.04699679 17.42003328 -18.57851341 20.96167685 -16.78125 26.578125 C-17.11125 27.238125 -17.44125 27.898125 -17.78125 28.578125 C-18.44125 28.578125 -19.10125 28.578125 -19.78125 28.578125 C-22.18502848 22.56867881 -22.30652682 17.61305776 -21.21875 11.328125 C-19.26470053 7.5899434 -16.68706653 5.89265513 -12.78125 4.578125 C-10.01405101 4.27870731 -7.57739406 4.38190436 -4.78125 4.578125 C-4.78125 3.588125 -4.78125 2.598125 -4.78125 1.578125 C-10.54877349 1.23207359 -14.7993605 1.25686534 -19.78125 4.578125 C-20.82240841 5.87957302 -21.83502841 7.20610369 -22.78125 8.578125 C-23.44125 8.578125 -24.10125 8.578125 -24.78125 8.578125 C-25.83393874 15.39215075 -25.71958398 20.94613931 -23.78125 27.578125 C-24.44125 27.578125 -25.10125 27.578125 -25.78125 27.578125 C-25.78125 25.928125 -25.78125 24.278125 -25.78125 22.578125 C-26.44125 22.578125 -27.10125 22.578125 -27.78125 22.578125 C-27.12125 24.888125 -26.46125 27.198125 -25.78125 29.578125 C-26.44125 29.908125 -27.10125 30.238125 -27.78125 30.578125 C-29.90667282 21.9783373 -30.2752576 14.92242701 -26.46875 6.765625 C-20.0774851 -1.51934802 -10.05033197 -5.13809106 0 0 Z " fill="#2E0A46" transform="translate(348.78125,199.421875)"/>
<path d="M0 0 C2.05078125 0.03255208 4.1015625 0.06510417 6.15234375 0.09765625 C7.12364712 7.93961767 7.33540745 15.70104348 7.33984375 23.59765625 C7.35208984 24.77585938 7.36433594 25.9540625 7.37695312 27.16796875 C7.37985352 28.85019531 7.37985352 28.85019531 7.3828125 30.56640625 C7.38692139 31.58154297 7.39103027 32.59667969 7.39526367 33.64257812 C7.15234375 36.09765625 7.15234375 36.09765625 5.15234375 38.09765625 C1.58984375 38.28515625 1.58984375 38.28515625 -1.84765625 38.09765625 C-3.63596073 36.30935177 -2.97614336 33.90184473 -2.98660278 31.52124023 C-2.98457855 30.74208252 -2.98255432 29.9629248 -2.98046875 29.16015625 C-2.98142548 28.36488525 -2.9823822 27.56961426 -2.98336792 26.75024414 C-2.98404968 25.06559165 -2.98219568 23.38093654 -2.97802734 21.69628906 C-2.972679 19.10866428 -2.97797244 16.52121309 -2.984375 13.93359375 C-2.98371422 12.30078086 -2.98243305 10.66796809 -2.98046875 9.03515625 C-2.98249298 8.25599854 -2.98451721 7.47684082 -2.98660278 6.67407227 C-2.95796648 0.15634072 -2.95796648 0.15634072 0 0 Z " fill="#2C0A45" transform="translate(258.84765625,197.90234375)"/>
<path d="M0 0 C0.39477539 2.64868164 0.39477539 2.64868164 0.59765625 6.16015625 C0.67693359 7.42923828 0.75621094 8.69832031 0.83789062 10.00585938 C0.91322098 11.35804734 0.98808715 12.71026124 1.0625 14.0625 C1.21804627 16.67850545 1.37554604 19.2943956 1.53515625 21.91015625 C1.61008301 23.14008301 1.68500977 24.37000977 1.76220703 25.63720703 C2.03222735 29.45574903 2.45473421 33.21209162 3 37 C0.03 37.66 -2.94 38.32 -6 39 C-7.93230861 31.52840673 -9.368162 23.74135235 -9 16 C-7.51171875 14.0859375 -7.51171875 14.0859375 -6 13 C-4.85149303 17.73879768 -4.67098443 22.46291362 -4.4375 27.3125 C-4.39431641 28.14845703 -4.35113281 28.98441406 -4.30664062 29.84570312 C-4.20114693 31.89696935 -4.10012685 33.9484648 -4 36 C-3.01 36 -2.02 36 -1 36 C-1.165 34.948125 -1.33 33.89625 -1.5 32.8125 C-2.25711395 26.89421488 -2.08169679 20.95478821 -2 15 C-2.66 14.67 -3.32 14.34 -4 14 C-4 11.03 -4 8.06 -4 5 C-5.98 5 -7.96 5 -10 5 C-10.32613281 5.73605469 -10.65226562 6.47210938 -10.98828125 7.23046875 C-11.42527344 8.20628906 -11.86226563 9.18210938 -12.3125 10.1875 C-12.74175781 11.15042969 -13.17101562 12.11335937 -13.61328125 13.10546875 C-14.92912311 15.85205696 -16.38987257 18.41718562 -18 21 C-18.66 20.01 -19.32 19.02 -20 18 C-19.566875 17.236875 -19.13375 16.47375 -18.6875 15.6875 C-16.68240986 11.7529835 -15.76737933 7.56852023 -14.74609375 3.29296875 C-14.49988281 2.53628906 -14.25367188 1.77960938 -14 1 C-11.60589296 -0.19705352 -9.66051959 -0.3543076 -7 -0.625 C-6.113125 -0.72039062 -5.22625 -0.81578125 -4.3125 -0.9140625 C-2 -1 -2 -1 0 0 Z " fill="#310B4A" transform="translate(410,198)"/>
<path d="M0 0 C9.19261214 2.12137203 9.19261214 2.12137203 12.125 5.3125 C13.18040038 8.55408688 13.56403607 10.6157836 13 14 C12.175 14.804375 11.35 15.60875 10.5 16.4375 C7.60352891 18.86167264 7.60352891 18.86167264 7.6875 22.8125 C7.790625 23.864375 7.89375 24.91625 8 26 C7.34 26 6.68 26 6 26 C5.67 26.66 5.34 27.32 5 28 C4.67 27.34 4.34 26.68 4 26 C4.33 25.34 4.66 24.68 5 24 C4.01 23.67 3.02 23.34 2 23 C2.66 22.67 3.32 22.34 4 22 C4 21.34 4 20.68 4 20 C3.01 20.33 2.02 20.66 1 21 C0.26625922 19.2657036 -0.46638854 17.53092987 -1.19140625 15.79296875 C-1.97649395 13.91585074 -1.97649395 13.91585074 -3.3125 12.0625 C-4.45610427 8.63168719 -3.28641068 5.30178742 -2 2 C-1.34 1.34 -0.68 0.68 0 0 Z M4 10 C4.33 10.66 4.66 11.32 5 12 C5.33 11.34 5.66 10.68 6 10 C5.34 10 4.68 10 4 10 Z " fill="#3F0C61" transform="translate(45,212)"/>
<path d="M0 0 C2.5 1.5625 2.5 1.5625 4 4 C4.5968778 8.70041265 4.66933757 10.83485682 2.3125 14.9375 C-0.34461954 17.30736337 -1.45835541 17.91763617 -5 18 C-8.6875 17.375 -8.6875 17.375 -12 16 C-14.69211935 12.02034531 -14.58685202 7.62145966 -14 3 C-9.69634444 -1.41124695 -5.63329008 -1.83381571 0 0 Z M-6 6 C-6.33 7.32 -6.66 8.64 -7 10 C-5.68 10.33 -4.36 10.66 -3 11 C-2.67 10.01 -2.34 9.02 -2 8 C-2.33 7.34 -2.66 6.68 -3 6 C-3.99 6 -4.98 6 -6 6 Z " fill="#45155E" transform="translate(84,220)"/>
<path d="M0 0 C3.08918667 3.011957 4.09824272 5.38797898 5.5 9.4375 C3.8125 11 3.8125 11 1.5 12.4375 C-1.25 12.125 -1.25 12.125 -3.5 11.4375 C-3.17 9.7875 -2.84 8.1375 -2.5 6.4375 C-1.51 6.4375 -0.52 6.4375 0.5 6.4375 C-4.73298229 2.71585819 -4.73298229 2.71585819 -10.8125 0.9375 C-13.81376541 1.49587496 -14.67150513 2.06045667 -16.5 4.4375 C-17.16 5.0975 -17.82 5.7575 -18.5 6.4375 C-18.89764263 8.42571313 -19.23775349 10.42694339 -19.5 12.4375 C-18.84 12.4375 -18.18 12.4375 -17.5 12.4375 C-17.17 13.4275 -16.84 14.4175 -16.5 15.4375 C-13.48862104 16.91444961 -13.48862104 16.91444961 -9.9375 18.125 C-8.73996094 18.56199219 -7.54242188 18.99898437 -6.30859375 19.44921875 C-5.38175781 19.77535156 -4.45492187 20.10148437 -3.5 20.4375 C-3.83 21.7575 -4.16 23.0775 -4.5 24.4375 C-5.7375 23.7878125 -5.7375 23.7878125 -7 23.125 C-9.56314837 21.88919632 -11.96155307 20.88018065 -14.625 19.9375 C-20.53561294 17.70410045 -20.53561294 17.70410045 -22.5 15.4375 C-23.41939234 12.47325228 -24.01206516 9.49993315 -24.5 6.4375 C-23.84 6.4375 -23.18 6.4375 -22.5 6.4375 C-22.29375 5.674375 -22.0875 4.91125 -21.875 4.125 C-17.89215251 -3.65965646 -7.009432 -3.12921071 0 0 Z " fill="#320948" transform="translate(152.5,199.5625)"/>
<path d="M0 0 C1.65 0 3.3 0 5 0 C5.33 8.25 5.66 16.5 6 25 C6.66 25.33 7.32 25.66 8 26 C7.67 26.99 7.34 27.98 7 29 C6.67 29 6.34 29 6 29 C5.505 31.475 5.505 31.475 5 34 C3.68 34 2.36 34 1 34 C-0.47905238 31.04189524 -0.12190903 28.0452845 -0.09765625 24.8046875 C-0.0962413 24.09724396 -0.09482635 23.38980042 -0.09336853 22.66091919 C-0.087766 20.39890331 -0.07521318 18.13698602 -0.0625 15.875 C-0.05748532 14.34244935 -0.05292236 12.80989714 -0.04882812 11.27734375 C-0.03779577 7.51819112 -0.02052952 3.75911228 0 0 Z " fill="#350552" transform="translate(258,200)"/>
<path d="M0 0 C0.99 0 1.98 0 3 0 C3.6708712 1.6232687 4.33657029 3.24867578 5 4.875 C5.556875 6.23238281 5.556875 6.23238281 6.125 7.6171875 C7 10 7 10 7 12 C8.32 12.33 9.64 12.66 11 13 C10.814375 13.86625 10.62875 14.7325 10.4375 15.625 C9.99332067 19.05152628 10.28045508 21.64212371 11 25 C9.0625 24.25 9.0625 24.25 7 23 C6.63837971 21.67405895 6.30271961 20.34061543 6 19 C5.01 18.67 4.02 18.34 3 18 C3 17.34 3 16.68 3 16 C-0.81756824 14.62567543 -4.07255329 15.32024961 -8 16 C-9 13 -9 13 -9 11 C-11.97 10.505 -11.97 10.505 -15 10 C-13.68 9.67 -12.36 9.34 -11 9 C-10.34 6.36 -9.68 3.72 -9 1 C-7 3 -7 3 -7 6 C-6.34 6 -5.68 6 -5 6 C-4.67 6.99 -4.34 7.98 -4 9 C-4.66 9 -5.32 9 -6 9 C-6 9.99 -6 10.98 -6 12 C-4.02 12 -2.04 12 0 12 C0.92844389 7.66726186 0.92844389 4.33273814 0 0 Z " fill="#3C0D5C" transform="translate(230,207)"/>
<path d="M0 0 C2.05078125 0.03255208 4.1015625 0.06510417 6.15234375 0.09765625 C7.43471744 3.94477731 6.61094375 5.07776574 5.08984375 8.78515625 C4.62707031 9.935 4.16429687 11.08484375 3.6875 12.26953125 C3.31262451 13.19475586 3.31262451 13.19475586 2.93017578 14.13867188 C1.30171034 18.23999224 -0.19220773 22.39407279 -1.70336914 26.53979492 C-3.1830785 30.53404967 -4.87562548 34.32279261 -6.84765625 38.09765625 C-9.81765625 38.09765625 -12.78765625 38.09765625 -15.84765625 38.09765625 C-15.84765625 36.77765625 -15.84765625 35.45765625 -15.84765625 34.09765625 C-13.20765625 34.42765625 -10.56765625 34.75765625 -7.84765625 35.09765625 C-7.62078125 33.86015625 -7.39390625 32.62265625 -7.16015625 31.34765625 C-6.03842945 26.21860112 -4.08017207 21.58986575 -1.96875 16.796875 C-1.02765228 14.53102649 -0.39306113 12.47543013 0.15234375 10.09765625 C0.65967528 8.50994515 1.18079557 6.92658131 1.71484375 5.34765625 C1.98425781 4.5484375 2.25367188 3.74921875 2.53125 2.92578125 C2.73621094 2.3225 2.94117188 1.71921875 3.15234375 1.09765625 C1.83234375 1.09765625 0.51234375 1.09765625 -0.84765625 1.09765625 C-1.00234375 2.02578125 -1.00234375 2.02578125 -1.16015625 2.97265625 C-1.84765625 5.09765625 -1.84765625 5.09765625 -4.84765625 7.09765625 C-2.62675581 0.13883487 -2.62675581 0.13883487 0 0 Z " fill="#2F0E46" transform="translate(304.84765625,197.90234375)"/>
<path d="M0 0 C-0.66 0.66 -1.32 1.32 -2 2 C-2 2.99 -2 3.98 -2 5 C0.31 5.33 2.62 5.66 5 6 C5 6.33 5 6.66 5 7 C4.04287109 7.07347656 4.04287109 7.07347656 3.06640625 7.1484375 C1.82697266 7.26058594 1.82697266 7.26058594 0.5625 7.375 C-0.26121094 7.44460937 -1.08492187 7.51421875 -1.93359375 7.5859375 C-2.95646484 7.79089844 -2.95646484 7.79089844 -4 8 C-4.33 8.66 -4.66 9.32 -5 10 C-5.66 10 -6.32 10 -7 10 C-6.01 11.32 -5.02 12.64 -4 14 C-4.99 14 -5.98 14 -7 14 C-7 14.66 -7 15.32 -7 16 C-7.99 16 -8.98 16 -10 16 C-10.33 16.99 -10.66 17.98 -11 19 C-12.01351664 17.34151823 -13.01120795 15.67334039 -14 14 C-14.391875 13.34 -14.78375 12.68 -15.1875 12 C-16.17691421 9.56451887 -16.14467909 7.60422365 -16 5 C-14.68 5 -13.36 5 -12 5 C-11.67 4.01 -11.34 3.02 -11 2 C-10.01 1.67 -9.02 1.34 -8 1 C-7.360625 0.62875 -6.72125 0.2575 -6.0625 -0.125 C-3.58372698 -1.17660068 -2.48787739 -0.88852764 0 0 Z " fill="#370750" transform="translate(76,195)"/>
<path d="M0 0 C0.66 0.33 1.32 0.66 2 1 C2 1.33 2 1.66 2 2 C2.99 2.66 3.98 3.32 5 4 C6.32 3.34 7.64 2.68 9 2 C9 2.66 9 3.32 9 4 C9.66 4 10.32 4 11 4 C11 4.66 11 5.32 11 6 C11.66 6 12.32 6 13 6 C12.65447612 8.55687669 12.24912987 10.57501375 10.9375 12.8125 C7.78940762 14.74197598 4.58544589 14.54006716 1 14 C-1.6692375 12.3984575 -2.04029192 10.90329939 -3.25 8 C-4 5 -4 5 -3 2 C-2.01 1.34 -1.02 0.68 0 0 Z M6 6 C7 8 7 8 7 8 Z M4 7 C4 7.66 4 8.32 4 9 C4.66 8.67 5.32 8.34 6 8 C5.34 7.67 4.68 7.34 4 7 Z " fill="#2F0A4B" transform="translate(83,250)"/>
<path d="M0 0 C3 2 3 2 3.8125 3.875 C4.04398726 6.49852224 3.34771696 7.78023089 2 10 C1.34 10 0.68 10 0 10 C-0.33 10.66 -0.66 11.32 -1 12 C-3.32156597 12.40729228 -5.6568787 12.74438677 -8 13 C-11.17153748 7.75476493 -11.17153748 7.75476493 -10.375 4.25 C-7.67767405 -0.1638061 -4.83438422 -0.40286535 0 0 Z " fill="#220C30" transform="translate(141,248)"/>
<path d="M0 0 C0.5775 0.639375 1.155 1.27875 1.75 1.9375 C3.7682885 4.14175508 3.7682885 4.14175508 6.125 4.4375 C6.74375 4.623125 7.3625 4.80875 8 5 C9.25 7.5625 9.25 7.5625 10 10 C10.66 9.34 11.32 8.68 12 8 C12.33 8.99 12.66 9.98 13 11 C14.32 10.01 15.64 9.02 17 8 C16.34 10.97 15.68 13.94 15 17 C13.02 17.33 11.04 17.66 9 18 C9 17.34 9 16.68 9 16 C8.34 16 7.68 16 7 16 C6.67 16.99 6.34 17.98 6 19 C5.34 17.35 4.68 15.7 4 14 C3.34 14 2.68 14 2 14 C1.66666667 12.66666667 1.33333333 11.33333333 1 10 C0.814375 9.38125 0.62875 8.7625 0.4375 8.125 C-0.12519937 5.39188876 -0.06322815 2.78203873 0 0 Z " fill="#3E0861" transform="translate(282,216)"/>
<path d="M0 0 C0.66 0.33 1.32 0.66 2 1 C3.13979115 5.14781139 3.44764766 8.85601154 1.875 12.875 C-0.96976508 16.09906709 -3.59195986 17.8237581 -7.90234375 18.36328125 C-19.21923808 18.1739381 -19.21923808 18.1739381 -23 16 C-25.45030477 12.87162348 -27 10.05891491 -27 6 C-25.125 6.625 -25.125 6.625 -23 8 C-21.75 11.125 -21.75 11.125 -21 14 C-14.43507888 14.78441153 -8.53162622 15.10914408 -2 14 C-1.93941406 13.40832031 -1.87882812 12.81664062 -1.81640625 12.20703125 C-1.37987629 8.09021792 -0.91328654 4.04455467 0 0 Z " fill="#2F0F4B" transform="translate(155,218)"/>
<path d="M0 0 C3.51562924 0.76285394 3.51562924 0.76285394 6.5625 -0.5 C6.5625 2.8 6.5625 6.1 6.5625 9.5 C2.3125 11.625 2.3125 11.625 -1.4375 10.5 C-2.4275 10.995 -2.4275 10.995 -3.4375 11.5 C-3.4375 10.84 -3.4375 10.18 -3.4375 9.5 C-4.4275 9.17 -5.4175 8.84 -6.4375 8.5 C-5.8515625 2.34765625 -5.8515625 2.34765625 -5.4375 0.5 C-3.4375 -0.5 -3.4375 -0.5 0 0 Z " fill="#2C0D3B" transform="translate(265.4375,248.5)"/>
<path d="M0 0 C0.99 0 1.98 0 3 0 C2.67 1.98 2.34 3.96 2 6 C2.66 6 3.32 6 4 6 C4 7.65 4 9.3 4 11 C3.01 11.33 2.02 11.66 1 12 C-0.52106634 15.04213267 -0.37429338 18.28047572 -0.5625 21.625 C-0.60568359 22.33140625 -0.64886719 23.0378125 -0.69335938 23.765625 C-0.79944751 25.51018537 -0.90022889 27.25506697 -1 29 C-1.66 29 -2.32 29 -3 29 C-3.66666667 21 -4.33333333 13 -5 5 C-4.360625 4.731875 -3.72125 4.46375 -3.0625 4.1875 C-0.66868314 3.11332248 -0.66868314 3.11332248 0 0 Z " fill="#3F0860" transform="translate(376,202)"/>
<path d="M0 0 C0.66 0.33 1.32 0.66 2 1 C3.30386673 5.67218911 2.79700288 8.55478235 1 13 C0.62875 13.94875 0.2575 14.8975 -0.125 15.875 C-0.41375 16.57625 -0.7025 17.2775 -1 18 C-3.31 18.33 -5.62 18.66 -8 19 C-6.68 17.68 -5.36 16.36 -4 15 C-4.99 15.66 -5.98 16.32 -7 17 C-9.47378124 18.23689062 -11.17915317 18.13310087 -13.9375 18.125 C-14.81277344 18.12757813 -15.68804687 18.13015625 -16.58984375 18.1328125 C-19 18 -19 18 -22 17 C-21.505 15.515 -21.505 15.515 -21 14 C-19.783125 14.37125 -18.56625 14.7425 -17.3125 15.125 C-14.56971634 15.78888933 -13.02018819 16.00314038 -10.1875 15.5625 C-6.94900753 13.24929109 -6.31006225 10.72333481 -5 7 C-4.34 7 -3.68 7 -3 7 C-3 7.99 -3 8.98 -3 10 C-2.34 10 -1.68 10 -1 10 C-1.33 7.69 -1.66 5.38 -2 3 C-1.34 3 -0.68 3 0 3 C0 2.01 0 1.02 0 0 Z " fill="#3C0863" transform="translate(353,211)"/>
<path d="M0 0 C1.5 1 1.5 1 3 3 C3.65753425 9.90410959 3.65753425 9.90410959 1.5 13.5 C1.005 13.995 0.51 14.49 0 15 C-1.9375 14.625 -1.9375 14.625 -4 14 C-4.33 13.34 -4.66 12.68 -5 12 C-4.34 12 -3.68 12 -3 12 C-3 10.35 -3 8.7 -3 7 C-5.60582371 6.06934867 -6.64198224 5.85082593 -9.25 6.9375 C-9.8275 7.288125 -10.405 7.63875 -11 8 C-10.49396008 5.83125748 -10.00016187 4.00032373 -9 2 C-6.07286212 1.05065798 -4.57168632 0.76823527 -1.6875 1.9375 C-1.130625 2.288125 -0.57375 2.63875 0 3 C0 2.01 0 1.02 0 0 Z " fill="#42115C" transform="translate(85,221)"/>
<path d="M0 0 C1.76923828 0.01353516 1.76923828 0.01353516 3.57421875 0.02734375 C4.47785156 0.03894531 5.38148437 0.05054688 6.3125 0.0625 C5.6525 0.7225 4.9925 1.3825 4.3125 2.0625 C4.6310177 4.17070797 4.6310177 4.17070797 5.3125 6.0625 C-1.06055598 6.80757544 -7.27061325 7.16599817 -13.6875 7.0625 C-13.3575 5.7425 -13.0275 4.4225 -12.6875 3.0625 C-11.6975 3.0625 -10.7075 3.0625 -9.6875 3.0625 C-9.6875 2.4025 -9.6875 1.7425 -9.6875 1.0625 C-6.26517028 -0.07827657 -3.60076783 -0.03565117 0 0 Z " fill="#421257" transform="translate(78.6875,207.9375)"/>
<path d="M0 0 C2 1 2 1 3.0703125 3.94140625 C3.59238281 5.73384766 3.59238281 5.73384766 4.125 7.5625 C4.65480469 9.35880859 4.65480469 9.35880859 5.1953125 11.19140625 C5.46085937 12.11824219 5.72640625 13.04507813 6 14 C2.26556125 14.81047919 -0.33220022 15.31664608 -4 14 C-5.35827971 12.35360035 -6.69254251 10.68704193 -8 9 C-10.12946603 8.13034494 -10.12946603 8.13034494 -12 8 C-12 7.34 -12 6.68 -12 6 C-7.75519536 5.66707415 -5.64457375 5.56114128 -2.0625 8 C-1.381875 8.66 -0.70125 9.32 0 10 C-0.08378906 9.36191406 -0.16757813 8.72382813 -0.25390625 8.06640625 C-0.35574219 7.24011719 -0.45757812 6.41382813 -0.5625 5.5625 C-0.66691406 4.73878906 -0.77132812 3.91507813 -0.87890625 3.06640625 C-0.91886719 2.38449219 -0.95882812 1.70257813 -1 1 C-0.67 0.67 -0.34 0.34 0 0 Z " fill="#341149" transform="translate(240,221)"/>
<path d="M0 0 C0.90492188 0.02320313 1.80984375 0.04640625 2.7421875 0.0703125 C4.10730469 0.09738281 4.10730469 0.09738281 5.5 0.125 C6.19867188 0.14820313 6.89734375 0.17140625 7.6171875 0.1953125 C7.9471875 0.8553125 8.2771875 1.5153125 8.6171875 2.1953125 C7.9571875 2.1953125 7.2971875 2.1953125 6.6171875 2.1953125 C6.25753906 3.25492188 6.25753906 3.25492188 5.890625 4.3359375 C4.40953629 7.66157227 2.5380517 10.12315384 0.2421875 12.9453125 C-0.52867187 13.90953125 -1.29953125 14.87375 -2.09375 15.8671875 C-4.32413006 18.13562865 -5.2830894 18.88392479 -8.3828125 19.1953125 C-7.90741794 14.9167615 -5.35715921 13.09884143 -2.3828125 10.1953125 C-1.32993436 8.56153608 -0.3101124 6.90349653 0.6171875 5.1953125 C-0.3728125 4.8653125 -1.3628125 4.5353125 -2.3828125 4.1953125 C-2.7128125 4.8553125 -3.0428125 5.5153125 -3.3828125 6.1953125 C-4.0078125 4.3203125 -4.0078125 4.3203125 -4.3828125 2.1953125 C-2.3828125 0.1953125 -2.3828125 0.1953125 0 0 Z " fill="#2D0B46" transform="translate(193.3828125,197.8046875)"/>
<path d="M0 0 C0.5775 0.165 1.155 0.33 1.75 0.5 C4.45033485 1.10007441 6.34161797 0.66459551 9 0 C9 3.3 9 6.6 9 10 C5.78419562 11.07193479 3.36629251 11.14636054 0 11 C-1 10 -1 10 -1.1328125 7.96875 C-1.13023437 7.1540625 -1.12765625 6.339375 -1.125 5.5 C-1.12757813 4.6853125 -1.13015625 3.870625 -1.1328125 3.03125 C-1 1 -1 1 0 0 Z " fill="#1F062E" transform="translate(383,248)"/>
<path d="M0 0 C0 0.99 0 1.98 0 3 C0.20625 3.845625 0.4125 4.69125 0.625 5.5625 C0.74875 6.366875 0.8725 7.17125 1 8 C-1 10 -1 10 -2.875 10.046875 C-3.57625 9.94890625 -4.2775 9.8509375 -5 9.75 C-6.051875 9.61851562 -6.051875 9.61851562 -7.125 9.484375 C-9 9 -9 9 -11 7 C-11 6.01 -11 5.02 -11 4 C-10.34 4 -9.68 4 -9 4 C-8.87625 3.360625 -8.7525 2.72125 -8.625 2.0625 C-8.41875 1.381875 -8.2125 0.70125 -8 0 C-5.13822943 -1.43088528 -3.06624227 -0.59991697 0 0 Z " fill="#1E0A2D" transform="translate(175,249)"/>
<path d="M0 0 C1.875 1.0625 1.875 1.0625 3 3 C3.1875 6.6875 3.1875 6.6875 3 10 C1.68 10 0.36 10 -1 10 C-2.67225729 10.30404678 -4.34080104 10.63128912 -6 11 C-6.144375 10.21625 -6.28875 9.4325 -6.4375 8.625 C-6.87798925 6.03578982 -6.87798925 6.03578982 -8 4 C-7.34 4 -6.68 4 -6 4 C-6 3.34 -6 2.68 -6 2 C-6.66 1.67 -7.32 1.34 -8 1 C-5.20129973 -0.39935013 -3.09501208 -0.25265405 0 0 Z " fill="#2D113B" transform="translate(306,248)"/>
<path d="M0 0 C1.76982406 4.14735879 0.05314714 7.69552489 -1.375 11.6875 C-1.60960937 12.37650391 -1.84421875 13.06550781 -2.0859375 13.77539062 C-3.83828712 18.83828712 -3.83828712 18.83828712 -5 20 C-8 20.125 -8 20.125 -11 20 C-12 19 -12 19 -12.0625 15.9375 C-12.041875 14.968125 -12.02125 13.99875 -12 13 C-11.34 13 -10.68 13 -10 13 C-10 12.34 -10 11.68 -10 11 C-9.01 11 -8.02 11 -7 11 C-6.34 9.02 -5.68 7.04 -5 5 C-4.34 5.66 -3.68 6.32 -3 7 C-2.01 4.69 -1.02 2.38 0 0 Z " fill="#360F51" transform="translate(398,216)"/>
<path d="M0 0 C0.99 0.33 1.98 0.66 3 1 C2.34 2.32 1.68 3.64 1 5 C0.24074219 4.96519531 -0.51851563 4.93039063 -1.30078125 4.89453125 C-2.29464844 4.86746094 -3.28851563 4.84039062 -4.3125 4.8125 C-5.29863281 4.77769531 -6.28476562 4.74289063 -7.30078125 4.70703125 C-9.99699275 4.77833617 -9.99699275 4.77833617 -11.8046875 6.27734375 C-13.84299513 9.21490475 -14.03187588 12.51915352 -14 16 C-13.49001546 18.4048812 -12.75092213 20.65336833 -12 23 C-12.33 23.66 -12.66 24.32 -13 25 C-13.66 25 -14.32 25 -15 25 C-17.40377848 18.99055381 -17.52527682 14.03493276 -16.4375 7.75 C-14.48345053 4.0118184 -11.90581653 2.31453013 -8 1 C-5.23280101 0.70058231 -2.79614406 0.80377936 0 1 C0 0.67 0 0.34 0 0 Z " fill="#2B0845" transform="translate(344,203)"/>
<path d="M0 0 C0.78375 0.165 1.5675 0.33 2.375 0.5 C5.09522679 1.23945377 5.09522679 1.23945377 8 0 C8 2 8 4 8 6 C8.63474075 7.34882408 9.29848848 8.6846659 10 10 C6.01080675 11.1004671 2.98919325 11.1004671 -1 10 C-1.02689216 8.52093108 -1.04634621 7.04172517 -1.0625 5.5625 C-1.07410156 4.73878906 -1.08570313 3.91507813 -1.09765625 3.06640625 C-1 1 -1 1 0 0 Z " fill="#321441" transform="translate(318,248)"/>
<path d="M0 0 C0.625 3.375 0.625 3.375 1 7 C-1 9 -1 9 -3.9375 9.375 C-7 9 -7 9 -8.9375 7.3125 C-10 5 -10 5 -9.9375 2.375 C-9 0 -9 0 -7.25 -1.4375 C-4.25020339 -2.18744915 -2.7110745 -1.35553725 0 0 Z " fill="#271231" transform="translate(410,250)"/>
<path d="M0 0 C2.31 0 4.62 0 7 0 C7.98248524 4.0527516 8.08159574 7.83861737 8 12 C5.36 12 2.72 12 0 12 C0 8.04 0 4.08 0 0 Z " fill="#2E123C" transform="translate(336,248)"/>
<path d="M0 0 C2.48057628 2.48057628 2.29019005 3.36192464 2.4140625 6.7890625 C2.45273437 7.73007813 2.49140625 8.67109375 2.53125 9.640625 C2.5621875 10.62546875 2.593125 11.6103125 2.625 12.625 C2.66367187 13.61757812 2.70234375 14.61015625 2.7421875 15.6328125 C2.8366314 18.08835385 2.92219875 20.5438841 3 23 C4.32 22.67 5.64 22.34 7 22 C7.33 20.02 7.66 18.04 8 16 C8.33 16 8.66 16 9 16 C9.33 18.64 9.66 21.28 10 24 C7.03 24.66 4.06 25.32 1 26 C-0.94843854 18.46603764 -2.12034659 10.80247069 -2 3 C-1.34 2.01 -0.68 1.02 0 0 Z " fill="#2F0C47" transform="translate(403,211)"/>
<path d="M0 0 C0.33 0 0.66 0 1 0 C1 9.57 1 19.14 1 29 C0.34 29 -0.32 29 -1 29 C-1.33 29.66 -1.66 30.32 -2 31 C-2.05817206 26.77089131 -2.09365463 22.54188591 -2.125 18.3125 C-2.14175781 17.11431641 -2.15851563 15.91613281 -2.17578125 14.68164062 C-2.18222656 13.52470703 -2.18867188 12.36777344 -2.1953125 11.17578125 C-2.20578613 10.11270752 -2.21625977 9.04963379 -2.22705078 7.9543457 C-1.99375431 4.91873219 -1.28205135 2.74376733 0 0 Z " fill="#3A0561" transform="translate(261,203)"/>
<path d="M0 0 C3.12800621 5.02715283 3.12800621 5.02715283 2.6875 8.375 C2.460625 8.91125 2.23375 9.4475 2 10 C1.443125 9.79375 0.88625 9.5875 0.3125 9.375 C-2.659538 8.89304789 -4.31979941 9.73434972 -7 11 C-8.23967448 7.41871818 -8.02699061 4.63396678 -7 1 C-4.1587258 -1.17831022 -3.46754708 -1.15584903 0 0 Z " fill="#1C0828" transform="translate(221,249)"/>
<path d="M0 0 C2.375 0.3125 2.375 0.3125 5 1 C7 4 7 4 7 7 C7.66 7.33 8.32 7.66 9 8 C8.34 9.32 7.68 10.64 7 12 C6.01 11.34 5.02 10.68 4 10 C2.65737935 10.29369827 1.32303717 10.6278958 0 11 C-0.99 10.67 -1.98 10.34 -3 10 C-2.67515625 9.04287109 -2.67515625 9.04287109 -2.34375 8.06640625 C-2.0653125 7.24011719 -1.786875 6.41382813 -1.5 5.5625 C-1.08234375 4.32693359 -1.08234375 4.32693359 -0.65625 3.06640625 C0.05044718 1.20250304 0.05044718 1.20250304 0 0 Z " fill="#3A1550" transform="translate(283,248)"/>
<path d="M0 0 C2.0625 0.4375 2.0625 0.4375 4 1 C3.34 1 2.68 1 2 1 C1.87625 1.928125 1.7525 2.85625 1.625 3.8125 C1 7 1 7 -1 10 C-1.38499891 11.65549531 -1.72793135 13.3222433 -2 15 C-1.34 15 -0.68 15 0 15 C0.33 14.01 0.66 13.02 1 12 C1.66 12 2.32 12 3 12 C3.04254356 13.99954746 3.04080783 16.00041636 3 18 C2 19 2 19 -1.4375 19.1875 C-5 19 -5 19 -7 17 C-6.02412745 14.35290841 -5.04447855 11.70732553 -4.0625 9.0625 C-3.78470703 8.30775391 -3.50691406 7.55300781 -3.22070312 6.77539062 C-1.11328125 1.11328125 -1.11328125 1.11328125 0 0 Z " fill="#39154D" transform="translate(215,217)"/>
<path d="M0 0 C0 2.31 0 4.62 0 7 C-1.65 7.33 -3.3 7.66 -5 8 C-5 8.66 -5 9.32 -5 10 C-6.98 9.34 -8.96 8.68 -11 8 C-11 4 -11 4 -9.5 2.3125 C-8.7575 1.6628125 -8.7575 1.6628125 -8 1 C-8 0.67 -8 0.34 -8 0 C-4.71303767 -0.79953138 -3.28976808 -1.09658936 0 0 Z M-6 4 C-5 6 -5 6 -5 6 Z " fill="#4D116E" transform="translate(106,201)"/>
<path d="M0 0 C3.96 0.99 3.96 0.99 8 2 C8.33 5.96 8.66 9.92 9 14 C8.34 14 7.68 14 7 14 C6.67 14.66 6.34 15.32 6 16 C5.43917646 13.83682349 4.9479799 11.7027423 4.5625 9.5 C4.01304464 7.05797619 3.21039692 5.17871446 2 3 C1.34 3 0.68 3 0 3 C0 4.98 0 6.96 0 9 C-0.66 9 -1.32 9 -2 9 C-2 6.69 -2 4.38 -2 2 C-1.34 2 -0.68 2 0 2 C0 1.34 0 0.68 0 0 Z " fill="#2C073B" transform="translate(171,197)"/>
<path d="M0 0 C0.99 0 1.98 0 3 0 C2.98839844 0.77085937 2.97679687 1.54171875 2.96484375 2.3359375 C2.95582031 3.33882812 2.94679687 4.34171875 2.9375 5.375 C2.92589844 6.37273437 2.91429687 7.37046875 2.90234375 8.3984375 C2.81993398 10.98432453 2.81993398 10.98432453 4 13 C-0.33273814 13.92844389 -3.66726186 13.92844389 -8 13 C-7.01 12.67 -6.02 12.34 -5 12 C-5 8.7 -5 5.4 -5 2 C-4.34 2 -3.68 2 -3 2 C-3 4.31 -3 6.62 -3 9 C-1.37506099 7.87890434 -1.37506099 7.87890434 0 6 C0.25048636 2.87450983 0.25048636 2.87450983 0 0 Z " fill="#2C0748" transform="translate(176,222)"/>
<path d="M0 0 C0.99 0.33 1.98 0.66 3 1 C1.515 3.475 1.515 3.475 0 6 C0.99 5.67 1.98 5.34 3 5 C3.66 5.66 4.32 6.32 5 7 C5.99 6.67 6.98 6.34 8 6 C7.95875 6.94875 7.9175 7.8975 7.875 8.875 C7.65026182 12.10244856 7.65026182 12.10244856 10 14 C5.48281619 15.36884358 2.41225737 14.47075246 -2 13 C-1.34 11.35 -0.68 9.7 0 8 C0.33 8.66 0.66 9.32 1 10 C1.66 10 2.32 10 3 10 C2.67 9.34 2.34 8.68 2 8 C1.01 7.67 0.02 7.34 -1 7 C-0.67 4.69 -0.34 2.38 0 0 Z " fill="#390C5A" transform="translate(74,223)"/>
<path d="M0 0 C0.99 0.33 1.98 0.66 3 1 C2.9175 1.825 2.835 2.65 2.75 3.5 C3.07444713 8.04225982 4.854465 11.05972089 7 15 C9.09798271 19.39577329 9.09798271 19.39577329 8.625 22.3125 C8.315625 23.1478125 8.315625 23.1478125 8 24 C7.71125 23.195625 7.4225 22.39125 7.125 21.5625 C6.26737432 18.8673532 6.26737432 18.8673532 4 18 C1.34766544 12.59172406 -0.48255971 6.81685446 -2 1 C-1.34 0.67 -0.68 0.34 0 0 Z " fill="#2E0948" transform="translate(277,198)"/>
<path d="M0 0 C2.05078125 0.03255208 4.1015625 0.06510417 6.15234375 0.09765625 C6.48234375 1.08765625 6.81234375 2.07765625 7.15234375 3.09765625 C6.16234375 4.08765625 5.17234375 5.07765625 4.15234375 6.09765625 C4.81234375 6.09765625 5.47234375 6.09765625 6.15234375 6.09765625 C5.49234375 7.41765625 4.83234375 8.73765625 4.15234375 10.09765625 C3.16234375 10.09765625 2.17234375 10.09765625 1.15234375 10.09765625 C1.15234375 9.10765625 1.15234375 8.11765625 1.15234375 7.09765625 C0.49234375 7.09765625 -0.16765625 7.09765625 -0.84765625 7.09765625 C-1.50765625 5.11765625 -2.16765625 3.13765625 -2.84765625 1.09765625 C-1.84765625 0.09765625 -1.84765625 0.09765625 0 0 Z " fill="#0B020F" transform="translate(198.84765625,247.90234375)"/>
<path d="M0 0 C0.99 0 1.98 0 3 0 C0.6892779 8.35010941 0.6892779 8.35010941 -2.1875 11.0625 C-2.785625 11.371875 -3.38375 11.68125 -4 12 C-6.50037734 9.82575883 -7.43628586 8.26954202 -8 5 C-2.25 2 -2.25 2 0 2 C0 1.34 0 0.68 0 0 Z " fill="#360E52" transform="translate(97,232)"/>
<path d="M0 0 C1.11375 0.556875 1.11375 0.556875 2.25 1.125 C1.25 4.125 1.25 4.125 0.25 5.125 C0.58 5.785 0.91 6.445 1.25 7.125 C0.59 7.125 -0.07 7.125 -0.75 7.125 C-0.75 8.445 -0.75 9.765 -0.75 11.125 C-2.07 10.795 -3.39 10.465 -4.75 10.125 C-4.42 9.135 -4.09 8.145 -3.75 7.125 C-4.41 6.795 -5.07 6.465 -5.75 6.125 C-6.375 3.5625 -6.375 3.5625 -6.75 1.125 C-4.02098495 -0.69434337 -3.21400584 -1.02263822 0 0 Z " fill="#230D31" transform="translate(358.75,247.875)"/>
<path d="M0 0 C0.66 0.66 1.32 1.32 2 2 C2.66 2.33 3.32 2.66 4 3 C2.625 5 2.625 5 1 7 C0.34 7 -0.32 7 -1 7 C-1 7.66 -1 8.32 -1 9 C-2.65 9.66 -4.3 10.32 -6 11 C-6.33 10.01 -6.66 9.02 -7 8 C-7.66 7.34 -8.32 6.68 -9 6 C-5.25 3 -5.25 3 -3 3 C-3 2.34 -3 1.68 -3 1 C-2.01 0.67 -1.02 0.34 0 0 Z " fill="#320848" transform="translate(102,245)"/>
<path d="M0 0 C0.66 0.5775 1.32 1.155 2 1.75 C1.67 3.4 1.34 5.05 1 6.75 C0.649375 6.255 0.29875 5.76 -0.0625 5.25 C-2.94374289 3.01936034 -5.47009026 3.55019379 -9 3.75 C-7.95125002 6.37187494 -7.35068687 7.54371361 -4.875 9 C-4.25625 9.2475 -3.6375 9.495 -3 9.75 C-4.75 10.4375 -4.75 10.4375 -7 10.75 C-9.25 9.625 -9.25 9.625 -11 7.75 C-11.25 5.0625 -11.25 5.0625 -11 2.75 C-3.9452954 -1.64387309 -3.9452954 -1.64387309 0 0 Z " fill="#381352" transform="translate(148,203.25)"/>
<path d="M0 0 C3.90604537 1.26682552 5.90166803 2.43283565 8 6 C8.6875 8.25 8.6875 8.25 9 10 C7.3125 11.5625 7.3125 11.5625 5 13 C2.25 12.6875 2.25 12.6875 0 12 C0.33 10.35 0.66 8.7 1 7 C1.99 7 2.98 7 4 7 C3.01 6.34 2.02 5.68 1 5 C0.3125 2.375 0.3125 2.375 0 0 Z " fill="#2C0C3F" transform="translate(149,199)"/>
<path d="M0 0 C0.66 0.66 1.32 1.32 2 2 C1.96712417 4.72869407 1.43602229 7.2966618 1 10 C0.34 10 -0.32 10 -1 10 C-1.12375 10.556875 -1.2475 11.11375 -1.375 11.6875 C-2.05976855 14.22114364 -2.99133763 16.57921032 -4 19 C-4.66 18.34 -5.32 17.68 -6 17 C-5.71484375 14.69921875 -5.71484375 14.69921875 -5 12 C-4.77441406 11.14019531 -4.54882812 10.28039062 -4.31640625 9.39453125 C-4.06761719 8.54246094 -3.81882812 7.69039062 -3.5625 6.8125 C-3.31628906 5.95269531 -3.07007813 5.09289062 -2.81640625 4.20703125 C-2 2 -2 2 0 0 Z " fill="#3C0761" transform="translate(305,202)"/>
<path d="M0 0 C0.66 0 1.32 0 2 0 C4 6 4 6 2.875 8.625 C1 11 1 11 -1.6875 11.8125 C-2.450625 11.874375 -3.21375 11.93625 -4 12 C-4 11.34 -4 10.68 -4 10 C-4.66 9.67 -5.32 9.34 -6 9 C-4.47793991 6.37098712 -3.15634036 4.15634036 -1 2 C-0.67 1.34 -0.34 0.68 0 0 Z " fill="#3C0F57" transform="translate(106,236)"/>
<path d="M0 0 C0.99 0.33 1.98 0.66 3 1 C3.33 2.98 3.66 4.96 4 7 C4.99 7.33 5.98 7.66 7 8 C6.34 9.32 5.68 10.64 5 12 C3.02 12 1.04 12 -1 12 C-1.02687279 10.18757948 -1.04633715 8.37504767 -1.0625 6.5625 C-1.07410156 5.55316406 -1.08570313 4.54382813 -1.09765625 3.50390625 C-1 1 -1 1 0 0 Z " fill="#100316" transform="translate(233,248)"/>
<path d="M0 0 C3 1 3 1 4.6875 3.3125 C6 6 6 6 6 10 C3.69 10 1.38 10 -1 10 C-1.185625 9.13375 -1.185625 9.13375 -1.375 8.25 C-2.00648824 5.97664233 -2.88858191 4.0746471 -4 2 C-2.68 2.33 -1.36 2.66 0 3 C0 2.01 0 1.02 0 0 Z " fill="#2F024F" transform="translate(190,223)"/>
<path d="M0 0 C6 7.71428571 6 7.71428571 6 11 C5.34 11 4.68 11 4 11 C3.67 11.66 3.34 12.32 3 13 C3 12.34 3 11.68 3 11 C2.01 11.33 1.02 11.66 0 12 C-2.09350689 8.5980513 -2.17942163 5.94727588 -2 2 C-1.34 2 -0.68 2 0 2 C0 1.34 0 0.68 0 0 Z " fill="#3A0A58" transform="translate(53,236)"/>
<path d="M0 0 C2.5570851 2.22355226 3.24170912 3.75018193 4 7 C4.66 7.33 5.32 7.66 6 8 C6.34022786 9.99883869 6.67329097 11.99890722 7 14 C7.66 14.66 8.32 15.32 9 16 C8.34 16 7.68 16 7 16 C6.67 16.99 6.34 17.98 6 19 C5.34 17.35 4.68 15.7 4 14 C3.34 14 2.68 14 2 14 C1.66666667 12.66666667 1.33333333 11.33333333 1 10 C0.814375 9.38125 0.62875 8.7625 0.4375 8.125 C-0.12519937 5.39188876 -0.06322815 2.78203873 0 0 Z " fill="#3D1454" transform="translate(282,216)"/>
<path d="M0 0 C1.98 0 3.96 0 6 0 C8.93841629 6.87619244 11.180206 13.74839665 13 21 C11.5 19.625 11.5 19.625 10 18 C10 17.34 10 16.68 10 16 C9.34 16 8.68 16 8 16 C7.84144531 15.08476562 7.68289063 14.16953125 7.51953125 13.2265625 C7.28621094 12.03804687 7.05289062 10.84953125 6.8125 9.625 C6.59207031 8.44164062 6.37164062 7.25828125 6.14453125 6.0390625 C5.3014827 2.79413151 5.3014827 2.79413151 2.38671875 1.5859375 C1.59910156 1.39257812 0.81148438 1.19921875 0 1 C0 0.67 0 0.34 0 0 Z " fill="#301347" transform="translate(377,198)"/>
<path d="M0 0 C-0.66 0.66 -1.32 1.32 -2 2 C-2 2.99 -2 3.98 -2 5 C0.31 5.33 2.62 5.66 5 6 C5 6.33 5 6.66 5 7 C3.25181409 7.22304441 1.50129677 7.4278645 -0.25 7.625 C-1.22453125 7.74101562 -2.1990625 7.85703125 -3.203125 7.9765625 C-6.13429393 8.00112537 -7.54528964 7.5312717 -10 6 C-9.34 5.67 -8.68 5.34 -8 5 C-8 4.01 -8 3.02 -8 2 C-8 1.34 -8 0.68 -8 0 C-4.94736336 -0.98120464 -3.05263664 -0.98120464 0 0 Z " fill="#300C55" transform="translate(76,195)"/>
<path d="M0 0 C0.66 1.32 1.32 2.64 2 4 C3.65 3.67 5.3 3.34 7 3 C7.33 4.32 7.66 5.64 8 7 C12.455 6.505 12.455 6.505 17 6 C17 6.66 17 7.32 17 8 C9.56621057 8.33452052 3.80122845 8.13902852 -3 5 C-2.34 4.67 -1.68 4.34 -1 4 C-0.34786708 1.97536745 -0.34786708 1.97536745 0 0 Z " fill="#330B4C" transform="translate(328,228)"/>
<path d="M0 0 C1.1875 1.625 1.1875 1.625 2 4 C0.8125 7.1875 0.8125 7.1875 -1 10 C-4.47325181 11.1577506 -7.36067448 11.06866652 -11 11 C-11 10.34 -11 9.68 -11 9 C-10.01 9 -9.02 9 -8 9 C-7.67 8.34 -7.34 7.68 -7 7 C-6.34 7.33 -5.68 7.66 -5 8 C-5 7.34 -5 6.68 -5 6 C-4.360625 5.7525 -3.72125 5.505 -3.0625 5.25 C-0.81258459 4.18437567 -0.81258459 4.18437567 -0.25 1.875 C-0.1675 1.25625 -0.085 0.6375 0 0 Z " fill="#391258" transform="translate(106,203)"/>
<path d="M0 0 C0.33 0.66 0.66 1.32 1 2 C2.32 1.67 3.64 1.34 5 1 C5 2.65 5 4.3 5 6 C3 7 3 7 -1 7 C-1 7.99 -1 8.98 -1 10 C-1.66 10 -2.32 10 -3 10 C-3.625 7.1875 -3.625 7.1875 -4 4 C-2 1 -2 1 0 0 Z " fill="#380F48" transform="translate(136,251)"/>
<path d="M0 0 C0.66 0 1.32 0 2 0 C1.77407627 3.91601134 1.53572471 6.32602376 -0.9375 9.4375 C-5.27406675 11.65003406 -9.21634575 11.4945812 -14 11 C-14.99 10.67 -15.98 10.34 -17 10 C-16.67 9.01 -16.34 8.02 -16 7 C-14.783125 7.37125 -13.56625 7.7425 -12.3125 8.125 C-9.56971634 8.78888933 -8.02018819 9.00314038 -5.1875 8.5625 C-1.94900753 6.24929109 -1.31006225 3.72333481 0 0 Z " fill="#412154" transform="translate(348,218)"/>
<path d="M0 0 C0.66 0 1.32 0 2 0 C2.33 1.65 2.66 3.3 3 5 C3.33 3.35 3.66 1.7 4 0 C4.66 0.33 5.32 0.66 6 1 C6 2.98 6 4.96 6 7 C5.67 7 5.34 7 5 7 C5.061875 8.423125 5.061875 8.423125 5.125 9.875 C5 13 5 13 3 15 C2.34 14.34 1.68 13.68 1 13 C1.33 12.34 1.66 11.68 2 11 C1.75742135 9.03525669 1.75742135 9.03525669 1.1875 6.9375 C1.01605469 6.22464844 0.84460938 5.51179687 0.66796875 4.77734375 C0.15193627 2.79266748 0.15193627 2.79266748 -2 2 C-1.34 1.34 -0.68 0.68 0 0 Z " fill="#320857" transform="translate(92,217)"/>
<path d="M0 0 C0 3.43830115 -0.37400757 6.61964088 -1 10 C-1.99 10.495 -1.99 10.495 -3 11 C-3 13.64 -3 16.28 -3 19 C-3.99 18.67 -4.98 18.34 -6 18 C-5.77245411 15.37124622 -5.51918261 12.74953041 -5.25 10.125 C-5.188125 9.37863281 -5.12625 8.63226563 -5.0625 7.86328125 C-4.828125 5.6953125 -4.828125 5.6953125 -4 2 C-1.921875 0.4921875 -1.921875 0.4921875 0 0 Z " fill="#2D0B42" transform="translate(375,197)"/>
<path d="M0 0 C1.98 0 3.96 0 6 0 C6.33 0.66 6.66 1.32 7 2 C6.01 2.33 5.02 2.66 4 3 C3.34 2.67 2.68 2.34 2 2 C2 2.66 2 3.32 2 4 C2.99 4.33 3.98 4.66 5 5 C1.25 8 1.25 8 -1 8 C-1 7.34 -1 6.68 -1 6 C-2.32 5.67 -3.64 5.34 -5 5 C-5 4.34 -5 3.68 -5 3 C-4.360625 2.87625 -3.72125 2.7525 -3.0625 2.625 C-2.0415625 2.315625 -2.0415625 2.315625 -1 2 C-0.67 1.34 -0.34 0.68 0 0 Z " fill="#480D5E" transform="translate(105,224)"/>
<path d="M0 0 C-0.33 1.98 -0.66 3.96 -1 6 C-3.97 6 -6.94 6 -10 6 C-9.67 4.68 -9.34 3.36 -9 2 C-8.01 2 -7.02 2 -6 2 C-6 1.34 -6 0.68 -6 0 C-3 -1 -3 -1 0 0 Z " fill="#440B69" transform="translate(75,209)"/>
<path d="M0 0 C0.99 0.33 1.98 0.66 3 1 C3 3.97 3 6.94 3 10 C2.01 10.33 1.02 10.66 0 11 C-0.99 10.01 -1.98 9.02 -3 8 C-1.125 1.125 -1.125 1.125 0 0 Z " fill="#0C0311" transform="translate(186,248)"/>
<path d="M0 0 C0.66 0 1.32 0 2 0 C1.67 3.96 1.34 7.92 1 12 C-0.98 12.33 -2.96 12.66 -5 13 C-5.66 10.69 -6.32 8.38 -7 6 C-6.01 5.34 -5.02 4.68 -4 4 C-4 5.98 -4 7.96 -4 10 C-2.68 9.67 -1.36 9.34 0 9 C0 6.03 0 3.06 0 0 Z " fill="#391050" transform="translate(377,221)"/>
<path d="M0 0 C0.99 0.33 1.98 0.66 3 1 C3.33 3.97 3.66 6.94 4 10 C2.68 10.33 1.36 10.66 0 11 C-0.66 10.34 -1.32 9.68 -2 9 C-1.34 9 -0.68 9 0 9 C0 8.34 0 7.68 0 7 C-0.66 7 -1.32 7 -2 7 C-1.125 1.125 -1.125 1.125 0 0 Z " fill="#1B0D28" transform="translate(154,248)"/>
<path d="M0 0 C2.29013653 3.4352048 2.17842973 4.985331 2 9 C1.34 9 0.68 9 0 9 C0 11.97 0 14.94 0 18 C-0.99 17.67 -1.98 17.34 -3 17 C-2.88556397 14.9160597 -2.75804453 12.83283507 -2.625 10.75 C-2.55539062 9.58984375 -2.48578125 8.4296875 -2.4140625 7.234375 C-2.03751692 4.29305666 -1.5225877 2.50050989 0 0 Z " fill="#2E0451" transform="translate(377,212)"/>
<path d="M0 0 C1.875 0.125 1.875 0.125 4 1 C6.0815665 5.4918014 6.49600157 10.12801522 7 15 C6.34 15 5.68 15 5 15 C4.3291288 13.3767313 3.66342971 11.75132422 3 10.125 C2.62875 9.22007812 2.2575 8.31515625 1.875 7.3828125 C1 5 1 5 1 3 C0.34 2.67 -0.32 2.34 -1 2 C-0.67 1.34 -0.34 0.68 0 0 Z " fill="#3A085E" transform="translate(280,203)"/>
<path d="M0 0 C1.32 0 2.64 0 4 0 C4 3.3 4 6.6 4 10 C2.68 10.33 1.36 10.66 0 11 C-2.21538462 5.70769231 -2.21538462 5.70769231 -1.125 2.125 C-0.75375 1.42375 -0.3825 0.7225 0 0 Z " fill="#170C25" transform="translate(370,248)"/>
<path d="M0 0 C0.99 0 1.98 0 3 0 C3 0.99 3 1.98 3 3 C3.66 3 4.32 3 5 3 C4 6 4 6 1 8 C-1.33199388 8.07905064 -3.66832622 8.08798769 -6 8 C-5.67 7.34 -5.34 6.68 -5 6 C-3.02 6.495 -3.02 6.495 -1 7 C-1 6.34 -1 5.68 -1 5 C-1.66 5 -2.32 5 -3 5 C-2 2 -2 2 0 0 Z " fill="#3E0D61" transform="translate(183,213)"/>
<path d="M0 0 C0.99 0.33 1.98 0.66 3 1 C4.1875 4.0625 4.1875 4.0625 5 7 C2.69 7.33 0.38 7.66 -2 8 C-2.33 7.34 -2.66 6.68 -3 6 C-1.44444444 1.44444444 -1.44444444 1.44444444 0 0 Z " fill="#39174E" transform="translate(218,248)"/>
<path d="M0 0 C0.66 0 1.32 0 2 0 C1.67 0.99 1.34 1.98 1 3 C1.66 3.33 2.32 3.66 3 4 C3.5 5.625 3.5 5.625 4 8 C4.37125 9.19625 4.7425 10.3925 5.125 11.625 C6 15 6 15 5 17 C1.73325049 11.88209244 -0.3331674 7.0930194 -1 1 C-0.67 0.67 -0.34 0.34 0 0 Z " fill="#27044D" transform="translate(47,232)"/>
<path d="M0 0 C0.99 0 1.98 0 3 0 C4.6875 2 4.6875 2 6 4 C2.26888555 4.87790928 -1.16795218 5.34062647 -5 5 C-5.66 4.01 -6.32 3.02 -7 2 C-3.86650268 0.95550089 -3.01031744 1.06576355 0 2 C0 1.34 0 0.68 0 0 Z " fill="#290D3B" transform="translate(196,231)"/>
<path d="M0 0 C0.33 0 0.66 0 1 0 C1.66 6.27 2.32 12.54 3 19 C2.01 19 1.02 19 0 19 C-0.1938211 16.02111874 -0.38035102 13.04209754 -0.5625 10.0625 C-0.61857422 9.21236328 -0.67464844 8.36222656 -0.73242188 7.48632812 C-0.80493164 6.27299805 -0.80493164 6.27299805 -0.87890625 5.03515625 C-0.9260376 4.2862915 -0.97316895 3.53742676 -1.02172852 2.76586914 C-1 1 -1 1 0 0 Z " fill="#29083D" transform="translate(409,205)"/>
<path d="M0 0 C1.32 0.33 2.64 0.66 4 1 C1.75421558 4.40739705 -0.51137122 7.76478258 -3 11 C-3.99 10.67 -4.98 10.34 -6 10 C-5.34 9.67 -4.68 9.34 -4 9 C-3.7834375 8.13375 -3.7834375 8.13375 -3.5625 7.25 C-2.86676025 4.467041 -1.5362926 2.4046319 0 0 Z " fill="#3C0961" transform="translate(191,202)"/>
<path d="M0 0 C2.375 0.3125 2.375 0.3125 5 1 C7 4 7 4 7 7 C7.66 7.33 8.32 7.66 9 8 C8.34 9.32 7.68 10.64 7 12 C4.98273532 9.43257223 3.3847169 6.95406272 2 4 C1.62875 3.2575 1.2575 2.515 0.875 1.75 C0.58625 1.1725 0.2975 0.595 0 0 Z " fill="#230A31" transform="translate(283,248)"/>
<path d="M0 0 C1.875 0.1875 1.875 0.1875 4 1 C5.25 3.5625 5.25 3.5625 6 6 C5.360625 6.12375 4.72125 6.2475 4.0625 6.375 C3.0415625 6.684375 3.0415625 6.684375 2 7 C1.67 7.66 1.34 8.32 1 9 C0.01 9 -0.98 9 -2 9 C-2.20140476 5.37471432 -1.85776765 3.13498292 0 0 Z " fill="#4C116F" transform="translate(65,199)"/>
<path d="M0 0 C0.66 0 1.32 0 2 0 C2.04254356 1.99954746 2.04080783 4.00041636 2 6 C1 7 1 7 -2.4375 7.1875 C-6 7 -6 7 -8 5 C-7.34 4.34 -6.68 3.68 -6 3 C-3.375 3.375 -3.375 3.375 -1 4 C-0.67 2.68 -0.34 1.36 0 0 Z " fill="#290A3D" transform="translate(216,229)"/>
<path d="M0 0 C1.75091019 0.08754551 3.50079551 0.19573373 5.25 0.3125 C6.22453125 0.37050781 7.1990625 0.42851562 8.203125 0.48828125 C11.25341611 1.04636524 12.70711276 1.96369776 15 4 C14.67 4.99 14.34 5.98 14 7 C13.175 6.566875 12.35 6.13375 11.5 5.6875 C7.72169247 3.86581601 3.94201671 2.42728191 0 1 C0 0.67 0 0.34 0 0 Z " fill="#341048" transform="translate(134,217)"/>
<path d="M0 0 C1.32 0.33 2.64 0.66 4 1 C4.6875 2.8125 4.6875 2.8125 5 5 C3.875 6.8125 3.875 6.8125 2 8 C-0.6875 7.6875 -0.6875 7.6875 -3 7 C-3 5.35 -3 3.7 -3 2 C0 3 0 3 1 5 C1.33 4.34 1.66 3.68 2 3 C1.34 2.67 0.68 2.34 0 2 C0 1.34 0 0.68 0 0 Z " fill="#531176" transform="translate(49,218)"/>
<path d="M0 0 C2.64 0.66 5.28 1.32 8 2 C8 2.66 8 3.32 8 4 C5.69 4.33 3.38 4.66 1 5 C1 5.66 1 6.32 1 7 C0.01 7.33 -0.98 7.66 -2 8 C-2.6875 6.25 -2.6875 6.25 -3 4 C-1.5625 1.75 -1.5625 1.75 0 0 Z " fill="#2B0745" transform="translate(45,212)"/>
<path d="M0 0 C1.37478516 0.01740234 1.37478516 0.01740234 2.77734375 0.03515625 C3.69644531 0.04417969 4.61554688 0.05320313 5.5625 0.0625 C6.27277344 0.07410156 6.98304688 0.08570313 7.71484375 0.09765625 C7.71484375 0.75765625 7.71484375 1.41765625 7.71484375 2.09765625 C4.3366695 2.94219981 2.04019132 3.20610544 -1.28515625 2.09765625 C-1.40890625 2.88140625 -1.53265625 3.66515625 -1.66015625 4.47265625 C-2.28515625 7.09765625 -2.28515625 7.09765625 -4.28515625 9.09765625 C-3.28992724 0.14059518 -3.28992724 0.14059518 0 0 Z " fill="#3B1950" transform="translate(224.28515625,197.90234375)"/>
<path d="M0 0 C2.475 0.99 2.475 0.99 5 2 C4.67 2.99 4.34 3.98 4 5 C4.38932856 7.14255793 4.38932856 7.14255793 5 9 C4.01 9.66 3.02 10.32 2 11 C2 10.01 2 9.02 2 8 C1.484375 7.54625 0.96875 7.0925 0.4375 6.625 C-0.036875 6.08875 -0.51125 5.5525 -1 5 C-0.6875 2.3125 -0.6875 2.3125 0 0 Z " fill="#14051E" transform="translate(171,248)"/>
<path d="M0 0 C0.66 0.33 1.32 0.66 2 1 C2.68939809 3.32671854 3.35466922 5.66067594 4 8 C4.99 9.485 4.99 9.485 6 11 C5.34 11.66 4.68 12.32 4 13 C2.82767315 11.3790787 1.6622923 9.75313167 0.5 8.125 C-0.1496875 7.22007812 -0.799375 6.31515625 -1.46875 5.3828125 C-3 3 -3 3 -3 1 C-2.01 0.67 -1.02 0.34 0 0 Z " fill="#320F4A" transform="translate(184,220)"/>
<path d="M0 0 C0.125 5.75 0.125 5.75 -1 8 C-2.32 7.34 -3.64 6.68 -5 6 C-5 4.35 -5 2.7 -5 1 C-3 0 -3 0 0 0 Z " fill="#4C255F" transform="translate(306,248)"/>
<path d="M0 0 C3.21365891 1.10815825 3.9914224 1.98529554 5.75 5 C7 8 7 8 7 10 C6.01 10 5.02 10 4 10 C0 3.375 0 3.375 0 0 Z " fill="#2C0D3F" transform="translate(128,224)"/>
<path d="M0 0 C0.66 0 1.32 0 2 0 C3 1 4 2 5 3 C7.09989652 4.17574711 7.09989652 4.17574711 9 5 C6.36 5.99 3.72 6.98 1 8 C-1.125 3.375 -1.125 3.375 0 0 Z " fill="#450F66" transform="translate(67,241)"/>
<path d="M0 0 C0.33 0 0.66 0 1 0 C1 1.98 1 3.96 1 6 C-1.97 6 -4.94 6 -8 6 C-8 4.68 -8 3.36 -8 2 C-5.36 2.33 -2.72 2.66 0 3 C0 2.01 0 1.02 0 0 Z " fill="#2B0C40" transform="translate(297,230)"/>
<path d="M0 0 C0.33 0 0.66 0 1 0 C1.33 1.65 1.66 3.3 2 5 C3.98 5 5.96 5 8 5 C7.67 5.99 7.34 6.98 7 8 C4.36 8 1.72 8 -1 8 C-1 5.16032769 -0.59732819 2.76264289 0 0 Z " fill="#2A103B" transform="translate(370,228)"/>
<path d="M0 0 C0.66 0 1.32 0 2 0 C2 1.65 2 3.3 2 5 C3.32 5.33 4.64 5.66 6 6 C6 7.32 6 8.64 6 10 C4.35 9.67 2.7 9.34 1 9 C0.67 6.03 0.34 3.06 0 0 Z " fill="#3D1659" transform="translate(321,222)"/>
<path d="M0 0 C3.27360452 0.94762236 4.67284007 1.44525055 6.4375 4.4375 C6.623125 5.283125 6.80875 6.12875 7 7 C6.01 8.485 6.01 8.485 5 10 C4.62875 9.0409375 4.62875 9.0409375 4.25 8.0625 C3.18437567 5.81258459 3.18437567 5.81258459 0.875 5.25 C0.25625 5.1675 -0.3625 5.085 -1 5 C-0.67 3.35 -0.34 1.7 0 0 Z " fill="#3C0961" transform="translate(346,203)"/>
<path d="M0 0 C2.97 0.495 2.97 0.495 6 1 C6 1.66 6 2.32 6 3 C6.763125 2.773125 7.52625 2.54625 8.3125 2.3125 C9.199375 2.209375 10.08625 2.10625 11 2 C12.8125 3.4375 12.8125 3.4375 14 5 C10.18243176 6.37432457 6.92744671 5.67975039 3 5 C3 4.34 3 3.68 3 3 C1.35 3 -0.3 3 -2 3 C-1.34 2.01 -0.68 1.02 0 0 Z " fill="#511376" transform="translate(75,195)"/>
<path d="M0 0 C1.98 0 3.96 0 6 0 C6 1.98 6 3.96 6 6 C5.01 6.33 4.02 6.66 3 7 C2.34 6.67 1.68 6.34 1 6 C0.375 2.9375 0.375 2.9375 0 0 Z " fill="#3F214D" transform="translate(402,251)"/>
<path d="M0 0 C0.33 0.99 0.66 1.98 1 3 C0.34 3.66 -0.32 4.32 -1 5 C-1.33 4.67 -1.66 4.34 -2 4 C-2.33 4.66 -2.66 5.32 -3 6 C-3.66 6 -4.32 6 -5 6 C-5.66 4.35 -6.32 2.7 -7 1 C-4.53721199 -0.231394 -2.7204945 -0.07159196 0 0 Z " fill="#240F32" transform="translate(205,248)"/>
<path d="M0 0 C3.9643665 3.9643665 5.55446088 6.42434911 7 12 C6.01 12 5.02 12 4 12 C3.32332002 10.75539217 2.65905281 9.50403104 2 8.25 C1.62875 7.55390625 1.2575 6.8578125 0.875 6.140625 C0 4 0 4 0 0 Z " fill="#2B0A43" transform="translate(233,207)"/>
<path d="M0 0 C0.99 0.33 1.98 0.66 3 1 C3 1.66 3 2.32 3 3 C4.98 2.67 6.96 2.34 9 2 C9 2.99 9 3.98 9 5 C7.02 5.66 5.04 6.32 3 7 C3 6.34 3 5.68 3 5 C2.01 4.67 1.02 4.34 0 4 C0 2.68 0 1.36 0 0 Z " fill="#1F042B" transform="translate(259,253)"/>
<path d="M0 0 C0.66 0 1.32 0 2 0 C3.625 2 3.625 2 5 4 C4.01 4 3.02 4 2 4 C2 4.66 2 5.32 2 6 C1.01 6 0.02 6 -1 6 C-1.33 6.99 -1.66 7.98 -2 9 C-2.6875 6.75 -2.6875 6.75 -3 4 C-1.6875 1.6875 -1.6875 1.6875 0 0 Z " fill="#3F0A5C" transform="translate(67,205)"/>
<path d="M0 0 C0.33 0.99 0.66 1.98 1 3 C-2 4 -5 5 -8 6 C-7.49396008 3.83125748 -7.00016187 2.00032373 -6 0 C-3 -1 -3 -1 0 0 Z " fill="#4E1671" transform="translate(82,223)"/>
<path d="M0 0 C1.485 0.99 1.485 0.99 3 2 C3.66 2 4.32 2 5 2 C6.125 5.75 6.125 5.75 5 8 C3.68 8 2.36 8 1 8 C1 7.34 1 6.68 1 6 C0.34 5.67 -0.32 5.34 -1 5 C-0.67 3.35 -0.34 1.7 0 0 Z " fill="#3E0A66" transform="translate(386,218)"/>
<path d="M0 0 C0.99 0.33 1.98 0.66 3 1 C2.34 1 1.68 1 1 1 C1.32960216 6.01535052 1.32960216 6.01535052 4 10 C2.68 10.33 1.36 10.66 0 11 C-0.144375 10.21625 -0.28875 9.4325 -0.4375 8.625 C-0.87798925 6.03578982 -0.87798925 6.03578982 -2 4 C-1.34 4 -0.68 4 0 4 C0 3.34 0 2.68 0 2 C-0.66 1.67 -1.32 1.34 -2 1 C-1.34 0.67 -0.68 0.34 0 0 Z " fill="#1E0728" transform="translate(300,248)"/>
<path d="M0 0 C2.4375 0.8125 2.4375 0.8125 5 2 C5.33 2.99 5.66 3.98 6 5 C6.99 5.33 7.98 5.66 9 6 C8.01 6.495 8.01 6.495 7 7 C4.64018187 6.06421005 2.30368736 5.06652192 0 4 C0 2.68 0 1.36 0 0 Z " fill="#3A0D5C" transform="translate(69,239)"/>
<path d="M0 0 C0.66 0 1.32 0 2 0 C2.33 1.65 2.66 3.3 3 5 C-1.33273814 5.92844389 -4.66726186 5.92844389 -9 5 C-5.91190305 3.23537317 -4.76687864 3 -1 3 C-0.67 2.01 -0.34 1.02 0 0 Z " fill="#1F092A" transform="translate(177,230)"/>
<path d="M0 0 C0.33 0 0.66 0 1 0 C1.33 2.64 1.66 5.28 2 8 C-0.97 8.66 -3.94 9.32 -7 10 C-6.67 8.35 -6.34 6.7 -6 5 C-5.67 5.66 -5.34 6.32 -5 7 C-3.68 6.67 -2.36 6.34 -1 6 C-0.67 4.02 -0.34 2.04 0 0 Z " fill="#1D042D" transform="translate(411,227)"/>
<path d="M0 0 C2.00720923 0.28674418 4.0085944 0.61866701 6 1 C5.65120368 4.25543229 4.97866739 5.01873107 2.4375 7.25 C1.2309375 8.11625 1.2309375 8.11625 0 9 C-0.33 8.34 -0.66 7.68 -1 7 C-0.34 7 0.32 7 1 7 C1 5.35 1 3.7 1 2 C0.34 1.67 -0.32 1.34 -1 1 C-0.67 0.67 -0.34 0.34 0 0 Z " fill="#3D0B60" transform="translate(149,223)"/>
<path d="M0 0 C0.598125 0.226875 1.19625 0.45375 1.8125 0.6875 C1.1525 0.6875 0.4925 0.6875 -0.1875 0.6875 C-0.435 1.491875 -0.6825 2.29625 -0.9375 3.125 C-2.1875 5.6875 -2.1875 5.6875 -4.3125 6.5 C-4.93125 6.561875 -5.55 6.62375 -6.1875 6.6875 C-5.78066505 4.32785727 -5.28935661 2.82815912 -3.875 0.875 C-2.1875 -0.3125 -2.1875 -0.3125 0 0 Z " fill="#330F4C" transform="translate(329.1875,201.3125)"/>
<path d="M0 0 C3.96 0.33 7.92 0.66 12 1 C12 1.99 12 2.98 12 4 C11.4225 3.814375 10.845 3.62875 10.25 3.4375 C7.79307475 2.95976454 6.35602466 3.24270636 4 4 C3.67 3.34 3.34 2.68 3 2 C2.01 1.34 1.02 0.68 0 0 Z " fill="#3B0B67" transform="translate(77,195)"/>
<path d="M0 0 C0.99 0.66 1.98 1.32 3 2 C2.42655063 4.86724686 2.1385485 5.8614515 0 8 C-0.33 7.34 -0.66 6.68 -1 6 C-1.99 5.67 -2.98 5.34 -4 5 C-2.68 3.35 -1.36 1.7 0 0 Z " fill="#360A64" transform="translate(64,248)"/>
<path d="M0 0 C1.32 0 2.64 0 4 0 C4 3.3 4 6.6 4 10 C3.01 10.33 2.02 10.66 1 11 C1 10.01 1 9.02 1 8 C1.66 8 2.32 8 3 8 C3 6.68 3 5.36 3 4 C1.68 3.67 0.36 3.34 -1 3 C-0.67 2.01 -0.34 1.02 0 0 Z " fill="#130321" transform="translate(388,248)"/>
<path d="M0 0 C1.26467795 2.52935589 0.7249339 3.34190903 0 6 C0 6.99 0 7.98 0 9 C-0.33 9.66 -0.66 10.32 -1 11 C-1.99 10.34 -2.98 9.68 -4 9 C-2.25 2.25 -2.25 2.25 0 0 Z " fill="#370659" transform="translate(216,223)"/>
<path d="M0 0 C0.33 0.66 0.66 1.32 1 2 C1.99 2.33 2.98 2.66 4 3 C-0.75 7.875 -0.75 7.875 -3 9 C-2.67 7.02 -2.34 5.04 -2 3 C-1.34 3 -0.68 3 0 3 C0 2.01 0 1.02 0 0 Z " fill="#3B0858" transform="translate(297,219)"/>
<path d="M0 0 C1.76462683 3.08809695 2 4.23312136 2 8 C2.66 8.66 3.32 9.32 4 10 C3.01 10.33 2.02 10.66 1 11 C0.34 10.67 -0.32 10.34 -1 10 C-1.02689216 8.52093108 -1.04634621 7.04172517 -1.0625 5.5625 C-1.07410156 4.73878906 -1.08570313 3.91507813 -1.09765625 3.06640625 C-1 1 -1 1 0 0 Z " fill="#1B0A34" transform="translate(318,248)"/>
<path d="M0 0 C1.9375 0.625 1.9375 0.625 4 2 C4.75 5.125 4.75 5.125 5 8 C4.34 7.67 3.68 7.34 3 7 C3 6.34 3 5.68 3 5 C1.68 4.67 0.36 4.34 -1 4 C-0.67 2.68 -0.34 1.36 0 0 Z " fill="#3C0E53" transform="translate(53,215)"/>
<path d="M0 0 C1.9375 0.8125 1.9375 0.8125 4 2 C4.33 2.99 4.66 3.98 5 5 C2.69 5 0.38 5 -2 5 C-1.34 3.35 -0.68 1.7 0 0 Z " fill="#3B095D" transform="translate(191,228)"/>
<path d="M0 0 C0.33 0.99 0.66 1.98 1 3 C3.97 3.495 3.97 3.495 7 4 C6.67 4.66 6.34 5.32 6 6 C4.68 6 3.36 6 2 6 C2 6.66 2 7.32 2 8 C2.66 8.33 3.32 8.66 4 9 C3.01 9 2.02 9 1 9 C0.67 6.03 0.34 3.06 0 0 Z " fill="#47196B" transform="translate(98,221)"/>
<path d="M0 0 C1.98 0 3.96 0 6 0 C6 2.31 6 4.62 6 7 C5.01 7.495 5.01 7.495 4 8 C4 6.02 4 4.04 4 2 C2.02 2.99 2.02 2.99 0 4 C0 2.68 0 1.36 0 0 Z " fill="#451568" transform="translate(90,215)"/>
<path d="M0 0 C2.97 0.99 5.94 1.98 9 3 C8.67 3.99 8.34 4.98 8 6 C7.01 6 6.02 6 5 6 C5 5.34 5 4.68 5 4 C3.02 3.34 1.04 2.68 -1 2 C-0.67 1.34 -0.34 0.68 0 0 Z " fill="#2E0B45" transform="translate(145,213)"/>
<path d="M0 0 C0.94875 0.350625 1.8975 0.70125 2.875 1.0625 C2.875 1.7225 2.875 2.3825 2.875 3.0625 C-0.095 3.0625 -3.065 3.0625 -6.125 3.0625 C-5.795 2.0725 -5.465 1.0825 -5.125 0.0625 C-3.125 -0.9375 -3.125 -0.9375 0 0 Z " fill="#4F106F" transform="translate(81.125,209.9375)"/>
<path d="M0 0 C3.0390625 0.2421875 3.0390625 0.2421875 6.625 0.875 C8.40777344 1.18050781 8.40777344 1.18050781 10.2265625 1.4921875 C11.14179687 1.65976563 12.05703125 1.82734375 13 2 C13 2.33 13 2.66 13 3 C11.25181409 3.22304441 9.50129677 3.4278645 7.75 3.625 C6.77546875 3.74101562 5.8009375 3.85703125 4.796875 3.9765625 C1.86570607 4.00112537 0.45471036 3.5312717 -2 2 C-1.34 1.34 -0.68 0.68 0 0 Z " fill="#3A0959" transform="translate(68,199)"/>
<path d="M0 0 C0.33 1.65 0.66 3.3 1 5 C-2.35433109 4.05066101 -5.69246505 3.10251165 -9 2 C-5.86501708 0.14223235 -3.62528568 -0.20140476 0 0 Z " fill="#33074B" transform="translate(149,198)"/>
<path d="M0 0 C0.33 0.99 0.66 1.98 1 3 C-1.3125 3.6875 -1.3125 3.6875 -4 4 C-5.8125 2.5625 -5.8125 2.5625 -7 1 C-3.375 -1.125 -3.375 -1.125 0 0 Z " fill="#220544" transform="translate(66,254)"/>
<path d="M0 0 C1.32 0.66 2.64 1.32 4 2 C4 3.65 4 5.3 4 7 C3.34 6.67 2.68 6.34 2 6 C0.67139075 5.64830932 -0.66158328 5.31229724 -2 5 C-2 2 -2 2 0 0 Z " fill="#481958" transform="translate(266,251)"/>
<path d="M0 0 C-1 1 -1 1 -3.72265625 1.09765625 C-5.37587891 1.08025391 -5.37587891 1.08025391 -7.0625 1.0625 C-8.16722656 1.05347656 -9.27195312 1.04445312 -10.41015625 1.03515625 C-11.69212891 1.01775391 -11.69212891 1.01775391 -13 1 C-8.2542993 -1.45328595 -4.83320421 -3.04312857 0 0 Z " fill="#2C063C" transform="translate(86,248)"/>
<path d="M0 0 C0.99 0 1.98 0 3 0 C3.125 3.375 3.125 3.375 3 7 C2.34 7.66 1.68 8.32 1 9 C0.34 9 -0.32 9 -1 9 C-1.66 7.68 -2.32 6.36 -3 5 C-1.68 5 -0.36 5 1 5 C0.67 3.35 0.34 1.7 0 0 Z " fill="#350957" transform="translate(152,217)"/>
<path d="M0 0 C2 2 2 2 2 6 C1.01 6.495 1.01 6.495 0 7 C-0.40729228 9.32156597 -0.74438677 11.6568787 -1 14 C-1.66 13.67 -2.32 13.34 -3 13 C-2.68991116 11.39536551 -2.37683713 9.79130769 -2.0625 8.1875 C-1.88847656 7.29417969 -1.71445312 6.40085938 -1.53515625 5.48046875 C-1 3 -1 3 0 0 Z " fill="#2C0C40" transform="translate(322,206)"/>
<path d="M0 0 C0 0.99 0 1.98 0 3 C-1.98 3.99 -1.98 3.99 -4 5 C-4.103125 4.38125 -4.20625 3.7625 -4.3125 3.125 C-4.87525373 0.63473516 -4.87525373 0.63473516 -8 -1 C-3.375 -2.25 -3.375 -2.25 0 0 Z " fill="#3E0968" transform="translate(88,210)"/>
<path d="M0 0 C2.6875 1.4375 2.6875 1.4375 5 3 C2.42786866 4.61949011 1.32330841 5.04408751 -1.75 4.625 C-2.4925 4.41875 -3.235 4.2125 -4 4 C-3.67 3.01 -3.34 2.02 -3 1 C-2.01 0.67 -1.02 0.34 0 0 Z " fill="#310C46" transform="translate(79,233)"/>
<path d="M0 0 C1.5 1.375 1.5 1.375 3 3 C3 3.66 3 4.32 3 5 C1.68 4.67 0.36 4.34 -1 4 C-1 4.66 -1 5.32 -1 6 C-0.34 6.33 0.32 6.66 1 7 C-0.98 7 -2.96 7 -5 7 C-4.67 6.34 -4.34 5.68 -4 5 C-3.34 5 -2.68 5 -2 5 C-2 4.34 -2 3.68 -2 3 C-1.34 3 -0.68 3 0 3 C0 2.01 0 1.02 0 0 Z " fill="#481E5D" transform="translate(85,221)"/>
<path d="M0 0 C0.66 0 1.32 0 2 0 C2.22174933 1.45635371 2.42698698 2.91522956 2.625 4.375 C2.74101563 5.18710938 2.85703125 5.99921875 2.9765625 6.8359375 C2.98429687 7.55007812 2.99203125 8.26421875 3 9 C2.34 9.66 1.68 10.32 1 11 C-1.125 6.375 -1.125 6.375 0 3 C0 2.01 0 1.02 0 0 Z " fill="#460F6B" transform="translate(61,219)"/>
<path d="M0 0 C0.66 0 1.32 0 2 0 C2 0.66 2 1.32 2 2 C2.66 2 3.32 2 4 2 C4.33 3.65 4.66 5.3 5 7 C4.34 7 3.68 7 3 7 C2.67 7.66 2.34 8.32 2 9 C1.34 6.03 0.68 3.06 0 0 Z " fill="#2A0940" transform="translate(383,222)"/>
<path d="M0 0 C0.99 0.33 1.98 0.66 3 1 C3 2.98 3 4.96 3 7 C2.01 7.33 1.02 7.66 0 8 C-0.66 5.69 -1.32 3.38 -2 1 C-1.34 0.67 -0.68 0.34 0 0 Z " fill="#2B0939" transform="translate(277,198)"/>
<path d="M0 0 C5.94 1.485 5.94 1.485 12 3 C12 3.33 12 3.66 12 4 C10.39592672 4.02708567 8.7917215 4.04643483 7.1875 4.0625 C5.84751953 4.07990234 5.84751953 4.07990234 4.48046875 4.09765625 C2 4 2 4 -1 3 C-0.67 2.01 -0.34 1.02 0 0 Z " fill="#46255F" transform="translate(332,225)"/>
<path d="M0 0 C0.66 0 1.32 0 2 0 C2.33 3.63 2.66 7.26 3 11 C1 8 1 8 0.5 5.375 C0.335 4.59125 0.17 3.8075 0 3 C-0.66 2.67 -1.32 2.34 -2 2 C-1.34 1.34 -0.68 0.68 0 0 Z " fill="#3D1355" transform="translate(92,217)"/>
<path d="M0 0 C0.66 0 1.32 0 2 0 C4.09230769 4.43076923 4.09230769 4.43076923 3.625 7.3125 C3.41875 7.869375 3.2125 8.42625 3 9 C1.3372974 6.32521756 0.00016187 4.0004856 -1 1 C-0.67 0.67 -0.34 0.34 0 0 Z " fill="#320745" transform="translate(228,208)"/>
<path d="M0 0 C0 1.32 0 2.64 0 4 C-1.32 3.67 -2.64 3.34 -4 3 C-4 2.34 -4 1.68 -4 1 C-5.65 1 -7.3 1 -9 1 C-9 0.67 -9 0.34 -9 0 C-2.25 -1.125 -2.25 -1.125 0 0 Z " fill="#1B082F" transform="translate(410,198)"/>
<path d="M0 0 C3 1 3 1 4.1875 3.0625 C4.455625 3.701875 4.72375 4.34125 5 5 C3.35 5.33 1.7 5.66 0 6 C0 4.02 0 2.04 0 0 Z " fill="#3B134F" transform="translate(384,250)"/>
<path d="M0 0 C1.258125 0.12375 2.51625 0.2475 3.8125 0.375 C4.87404297 0.47941406 4.87404297 0.47941406 5.95703125 0.5859375 C8 1 8 1 11 3 C9.02 3.33 7.04 3.66 5 4 C5 3.34 5 2.68 5 2 C4.01 2.33 3.02 2.66 2 3 C1.34 2.67 0.68 2.34 0 2 C0 1.34 0 0.68 0 0 Z " fill="#300A4C" transform="translate(75,242)"/>
<path d="M0 0 C0.66 0.66 1.32 1.32 2 2 C1.625 5.125 1.625 5.125 1 8 C-0.32 7.67 -1.64 7.34 -3 7 C-2.34 6.67 -1.68 6.34 -1 6 C-1.0309375 4.7934375 -1.0309375 4.7934375 -1.0625 3.5625 C-1 1 -1 1 0 0 Z " fill="#270B3D" transform="translate(264,228)"/>
<path d="M0 0 C1.5625 1.75 1.5625 1.75 3 4 C2.6875 6.25 2.6875 6.25 2 8 C1.34 8 0.68 8 0 8 C-0.38063221 5.6739143 -0.71269945 3.33944736 -1 1 C-0.67 0.67 -0.34 0.34 0 0 Z " fill="#310F48" transform="translate(329,220)"/>
<path d="M0 0 C0.99 0.33 1.98 0.66 3 1 C3 1.66 3 2.32 3 3 C3.66 3 4.32 3 5 3 C5.33 4.32 5.66 5.64 6 7 C4.125 6.875 4.125 6.875 2 6 C0.75 2.9375 0.75 2.9375 0 0 Z " fill="#3C0A65" transform="translate(185,220)"/>
<path d="M0 0 C2.0625 0.4375 2.0625 0.4375 4 1 C3.34 1 2.68 1 2 1 C1.87625 1.969375 1.7525 2.93875 1.625 3.9375 C1.41875 4.948125 1.2125 5.95875 1 7 C0.01 7.495 0.01 7.495 -1 8 C-1.04241723 5.66705225 -1.04092937 3.33297433 -1 1 C-0.67 0.67 -0.34 0.34 0 0 Z " fill="#300A4B" transform="translate(215,217)"/>
<path d="M0 0 C0.99 0 1.98 0 3 0 C3.33 1.98 3.66 3.96 4 6 C2.68 6.33 1.36 6.66 0 7 C-0.93423645 3.98968256 -1.04449911 3.13349732 0 0 Z " fill="#2A0546" transform="translate(296,215)"/>
<path d="M0 0 C0.99 0.99 1.98 1.98 3 3 C0 5 0 5 -2 5 C-2 5.66 -2 6.32 -2 7 C-2.66 6.67 -3.32 6.34 -4 6 C-3.67 5.01 -3.34 4.02 -3 3 C-2.34 3 -1.68 3 -1 3 C-0.67 2.01 -0.34 1.02 0 0 Z " fill="#511475" transform="translate(103,204)"/>
<path d="M0 0 C1.60725635 3.21451269 1.05748185 6.43612536 1 10 C-0.32 10.33 -1.64 10.66 -3 11 C-3 10.01 -3 9.02 -3 8 C-2.34 8 -1.68 8 -1 8 C-1.020625 6.865625 -1.04125 5.73125 -1.0625 4.5625 C-1 1 -1 1 0 0 Z " fill="#120416" transform="translate(373,248)"/>
<path d="M0 0 C0.33 1.32 0.66 2.64 1 4 C2.32 4.33 3.64 4.66 5 5 C4.34 5.66 3.68 6.32 3 7 C0.375 6.625 0.375 6.625 -2 6 C-1.34 4.02 -0.68 2.04 0 0 Z " fill="#1E0825" transform="translate(282,252)"/>
<path d="M0 0 C2.31 0.66 4.62 1.32 7 2 C7 2.99 7 3.98 7 5 C6.01 4.67 5.02 4.34 4 4 C1.85744207 4.38932856 1.85744207 4.38932856 0 5 C0 3.35 0 1.7 0 0 Z " fill="#3E0A60" transform="translate(329,228)"/>
<path d="M0 0 C2.5654594 2.5654594 2.54046087 4.47686668 3 8 C1.0625 7.1875 1.0625 7.1875 -1 6 C-1.33 5.01 -1.66 4.02 -2 3 C-1.34 2.01 -0.68 1.02 0 0 Z " fill="#3D0861" transform="translate(238,224)"/>
<path d="M0 0 C1.32 0 2.64 0 4 0 C4 0.66 4 1.32 4 2 C4.66 2 5.32 2 6 2 C6 2.99 6 3.98 6 5 C5.01 5.33 4.02 5.66 3 6 C2.01 4.02 1.02 2.04 0 0 Z " fill="#3C0E56" transform="translate(130,224)"/>
<path d="M0 0 C0.99 0 1.98 0 3 0 C3.66 1.32 4.32 2.64 5 4 C3.1875 5.0625 3.1875 5.0625 1 6 C0.01 5.67 -0.98 5.34 -2 5 C-1.67 4.360625 -1.34 3.72125 -1 3.0625 C0.07271225 1.23205433 0.07271225 1.23205433 0 0 Z " fill="#3F096F" transform="translate(53,220)"/>
<path d="M0 0 C2.475 0.99 2.475 0.99 5 2 C4.67 2.66 4.34 3.32 4 4 C3.34 3.67 2.68 3.34 2 3 C1.67 3.66 1.34 4.32 1 5 C0.01 4.67 -0.98 4.34 -2 4 C-1 1 -1 1 0 0 Z " fill="#370B53" transform="translate(232,215)"/>
<path d="M0 0 C0 1.66666667 0 3.33333333 0 5 C-1.65 5.33 -3.3 5.66 -5 6 C-5.33 5.01 -5.66 4.02 -6 3 C-5.01 3 -4.02 3 -3 3 C-3 2.34 -3 1.68 -3 1 C-2.01 0.67 -1.02 0.34 0 0 Z " fill="#52107A" transform="translate(72,208)"/>
<path d="M0 0 C2 1 4 2 6 3 C6 3.66 6 4.32 6 5 C4.02 5 2.04 5 0 5 C-0.33 4.01 -0.66 3.02 -1 2 C-0.67 1.34 -0.34 0.68 0 0 Z " fill="#200B2F" transform="translate(234,253)"/>
<path d="M0 0 C0.66 0 1.32 0 2 0 C1.67 0.99 1.34 1.98 1 3 C1.66 3.33 2.32 3.66 3 4 C2.67 5.32 2.34 6.64 2 8 C1.34 8 0.68 8 0 8 C-0.38063221 5.6739143 -0.71269945 3.33944736 -1 1 C-0.67 0.67 -0.34 0.34 0 0 Z " fill="#1E0240" transform="translate(47,232)"/>
<path d="M0 0 C0.33 0 0.66 0 1 0 C1.309375 0.94875 1.61875 1.8975 1.9375 2.875 C2.87394742 5.86080408 2.87394742 5.86080408 4 8 C2.68 8 1.36 8 0 8 C-0.38063221 5.6739143 -0.71269945 3.33944736 -1 1 C-0.67 0.67 -0.34 0.34 0 0 Z " fill="#3E1753" transform="translate(130,207)"/>
<path d="M0 0 C0.66 0 1.32 0 2 0 C1.6875 1.9375 1.6875 1.9375 1 4 C0.01 4.33 -0.98 4.66 -2 5 C-2.33 5.99 -2.66 6.98 -3 8 C-3.66 7.67 -4.32 7.34 -5 7 C-4.21654285 5.82780457 -3.42297164 4.66236332 -2.625 3.5 C-2.18414062 2.8503125 -1.74328125 2.200625 -1.2890625 1.53125 C-0.65097656 0.77328125 -0.65097656 0.77328125 0 0 Z " fill="#36154E" transform="translate(188,201)"/>
<path d="M0 0 C1.65 0.33 3.3 0.66 5 1 C3.62308038 3.75383923 1.63279958 4.51483101 -1 6 C-0.67 4.02 -0.34 2.04 0 0 Z " fill="#400758" transform="translate(100,202)"/>
<path d="M0 0 C3.465 1.485 3.465 1.485 7 3 C6.67 4.32 6.34 5.64 6 7 C5.6596875 6.0409375 5.6596875 6.0409375 5.3125 5.0625 C4.14749104 2.72806339 4.14749104 2.72806339 1.375 2.25 C0.59125 2.1675 -0.1925 2.085 -1 2 C-0.67 1.34 -0.34 0.68 0 0 Z " fill="#511C6E" transform="translate(90,197)"/>
<path d="M0 0 C-0.99 0 -1.98 0 -3 0 C-3.66 1.32 -4.32 2.64 -5 4 C-6.32 3.34 -7.64 2.68 -9 2 C-8 0 -8 0 -6.1875 -0.6875 C-3.81180233 -1.02688538 -2.26664171 -0.72856341 0 0 Z " fill="#1E0433" transform="translate(337,199)"/>
<path d="M0 0 C0.99 0 1.98 0 3 0 C2.34 1.98 1.68 3.96 1 6 C0.01 5.01 -0.98 4.02 -2 3 C-1.34 2.67 -0.68 2.34 0 2 C0 1.34 0 0.68 0 0 Z " fill="#310A44" transform="translate(97,232)"/>
<path d="M0 0 C2.31 0 4.62 0 7 0 C7 0.99 7 1.98 7 3 C5.02 3 3.04 3 1 3 C0.67 2.01 0.34 1.02 0 0 Z " fill="#240832" transform="translate(238,233)"/>
<path d="M0 0 C0.66 0.99 1.32 1.98 2 3 C1.125 6.6875 1.125 6.6875 0 10 C-0.66 10 -1.32 10 -2 10 C-1.34 6.7 -0.68 3.4 0 0 Z " fill="#391053" transform="translate(60,219)"/>
<path d="M0 0 C0 0.99 0 1.98 0 3 C-2 4.6875 -2 4.6875 -4 6 C-4 4.68 -4 3.36 -4 2 C-2.68 1.34 -1.36 0.68 0 0 Z " fill="#37114F" transform="translate(198,202)"/>
<path d="M0 0 C0.66 0 1.32 0 2 0 C1.34 1.32 0.68 2.64 0 4 C0 2.68 0 1.36 0 0 Z " fill="#0A0A35" transform="translate(218,200)"/>
<path d="M0 0 C0.99 0.495 0.99 0.495 2 1 C1.67 1.66 1.34 2.32 1 3 C0.67 2.01 0.34 1.02 0 0 Z " fill="#100010" transform="translate(105,198)"/>
<path d="M0 0 C0.99 0.495 0.99 0.495 2 1 C1.01 1.495 1.01 1.495 0 2 C0 1.34 0 0.68 0 0 Z " fill="#1B0A20" transform="translate(281,250)"/>
<path d="" fill="#3E1145" transform="translate(0,0)"/>
<path d="" fill="#2D2D2D" transform="translate(0,0)"/>
<path d="" fill="#3D0C4A" transform="translate(0,0)"/>
<path d="M0 0 C3 1 3 1 3 1 Z " fill="#000000" transform="translate(377,196)"/>
<path d="" fill="#350035" transform="translate(0,0)"/>
<path d="M0 0 C2 1 2 1 2 1 Z " fill="#000000" transform="translate(171,260)"/>
<path d="" fill="#120012" transform="translate(0,0)"/>
<path d="M0 0 C2 1 2 1 2 1 Z " fill="#22112A" transform="translate(303,259)"/>
<path d="" fill="#000000" transform="translate(0,0)"/>
<path d="" fill="#1A0D26" transform="translate(0,0)"/>
<path d="" fill="#150A15" transform="translate(0,0)"/>
<path d="" fill="#331A33" transform="translate(0,0)"/>
<path d="" fill="#1E1E25" transform="translate(0,0)"/>
<path d="" fill="#373743" transform="translate(0,0)"/>
<path d="" fill="#201020" transform="translate(0,0)"/>
<path d="" fill="#1C0E1C" transform="translate(0,0)"/>
<path d="" fill="#2A002A" transform="translate(0,0)"/>
<path d="" fill="#3F153F" transform="translate(0,0)"/>
<path d="" fill="#4F124F" transform="translate(0,0)"/>
<path d="" fill="#46124F" transform="translate(0,0)"/>
<path d="" fill="#35254A" transform="translate(0,0)"/>
<path d="" fill="#000020" transform="translate(0,0)"/>
<path d="" fill="#151515" transform="translate(0,0)"/>
<path d="" fill="#441944" transform="translate(0,0)"/>
<path d="M0 0 C2 1 2 1 2 1 Z " fill="#2A002A" transform="translate(134,219)"/>
<path d="" fill="#1E0E2C" transform="translate(0,0)"/>
<path d="" fill="#00002A" transform="translate(0,0)"/>
<path d="M0 0 C2 1 2 1 2 1 Z " fill="#111119" transform="translate(102,214)"/>
<path d="" fill="#190D19" transform="translate(0,0)"/>
<path d="" fill="#000000" transform="translate(0,0)"/>
<path d="" fill="#221922" transform="translate(0,0)"/>
<path d="" fill="#402040" transform="translate(0,0)"/>
<path d="M0 0 C2 1 2 1 2 1 Z " fill="#000000" transform="translate(307,196)"/>
<path d="M0 0 C2 1 2 1 2 1 Z " fill="#000000" transform="translate(279,196)"/>
<path d="M0 0 C2 1 2 1 2 1 Z " fill="#000000" transform="translate(144,196)"/>
<path d="M0 0 C2 1 2 1 2 1 Z " fill="#20004A" transform="translate(66,196)"/>
<path d="" fill="#FFFFFF" transform="translate(0,0)"/>
<path d="" fill="#FFFFFF" transform="translate(0,0)"/>
<path d="" fill="#FFFFFF" transform="translate(0,0)"/>
<path d="" fill="#FFFFFF" transform="translate(0,0)"/>
<path d="" fill="#FFFFFF" transform="translate(0,0)"/>
<path d="" fill="#FFFFFF" transform="translate(0,0)"/>
<path d="" fill="#FFFFFF" transform="translate(0,0)"/>
<path d="" fill="#FFFFFF" transform="translate(0,0)"/>
<path d="" fill="#FFFFFF" transform="translate(0,0)"/>
<path d="" fill="#FFFFFF" transform="translate(0,0)"/>
<path d="" fill="#FFFFFF" transform="translate(0,0)"/>
<path d="" fill="#FFFFFF" transform="translate(0,0)"/>
<path d="" fill="#FFFFFF" transform="translate(0,0)"/>
<path d="" fill="#FFFFFF" transform="translate(0,0)"/>
<path d="" fill="#FFFFFF" transform="translate(0,0)"/>
<path d="" fill="#FFFFFF" transform="translate(0,0)"/>
<path d="" fill="#FFFFFF" transform="translate(0,0)"/>
<path d="" fill="#FFFFFF" transform="translate(0,0)"/>
<path d="" fill="#FFFFFF" transform="translate(0,0)"/>
<path d="" fill="#FFFFFF" transform="translate(0,0)"/>
<path d="" fill="#FFFFFF" transform="translate(0,0)"/>
<path d="" fill="#FFFFFF" transform="translate(0,0)"/>
<path d="" fill="#FFFFFF" transform="translate(0,0)"/>
<path d="" fill="#FFFFFF" transform="translate(0,0)"/>
<path d="" fill="#FFFFFF" transform="translate(0,0)"/>
<path d="" fill="#FFFFFF" transform="translate(0,0)"/>
<path d="" fill="#FFFFFF" transform="translate(0,0)"/>
<path d="" fill="#FFFFFF" transform="translate(0,0)"/>
<path d="" fill="#00FFFF" transform="translate(0,0)"/>
<path d="" fill="#FFFFFF" transform="translate(0,0)"/>
<path d="" fill="#FFFFFF" transform="translate(0,0)"/>
<path d="" fill="#FFFFFF" transform="translate(0,0)"/>
<path d="" fill="#FFFFFF" transform="translate(0,0)"/>
<path d="" fill="#FFFFFF" transform="translate(0,0)"/>
<path d="" fill="#FFFFFF" transform="translate(0,0)"/>
<path d="" fill="#2A002A" transform="translate(0,0)"/>
<path d="" fill="#FFFFFF" transform="translate(0,0)"/>
<path d="" fill="#FFFFFF" transform="translate(0,0)"/>
<path d="" fill="#000000" transform="translate(0,0)"/>
<path d="" fill="#000000" transform="translate(0,0)"/>
<path d="" fill="#000000" transform="translate(0,0)"/>
<path d="" fill="#000000" transform="translate(0,0)"/>
<path d="" fill="#000000" transform="translate(0,0)"/>
<path d="" fill="#000000" transform="translate(0,0)"/>
<path d="" fill="#000000" transform="translate(0,0)"/>
<path d="" fill="#330033" transform="translate(0,0)"/>
<path d="" fill="#000000" transform="translate(0,0)"/>
<path d="" fill="#000000" transform="translate(0,0)"/>
<path d="" fill="#000000" transform="translate(0,0)"/>
<path d="" fill="#000000" transform="translate(0,0)"/>
<path d="" fill="#000000" transform="translate(0,0)"/>
<path d="" fill="#FFFFFF" transform="translate(0,0)"/>
<path d="" fill="#000000" transform="translate(0,0)"/>
<path d="" fill="#000000" transform="translate(0,0)"/>
<path d="" fill="#000000" transform="translate(0,0)"/>
<path d="" fill="#202040" transform="translate(0,0)"/>
<path d="" fill="#000000" transform="translate(0,0)"/>
<path d="" fill="#000000" transform="translate(0,0)"/>
<path d="" fill="#000000" transform="translate(0,0)"/>
<path d="" fill="#550055" transform="translate(0,0)"/>
<path d="" fill="#241824" transform="translate(0,0)"/>
<path d="" fill="#291931" transform="translate(0,0)"/>
<path d="" fill="#400040" transform="translate(0,0)"/>
<path d="" fill="#1A1A1A" transform="translate(0,0)"/>
<path d="" fill="#000000" transform="translate(0,0)"/>
<path d="" fill="#2A002A" transform="translate(0,0)"/>
<path d="" fill="#000000" transform="translate(0,0)"/>
<path d="" fill="#402040" transform="translate(0,0)"/>
<path d="" fill="#550055" transform="translate(0,0)"/>
<path d="" fill="#FFFFFF" transform="translate(0,0)"/>
<path d="" fill="#331A33" transform="translate(0,0)"/>
<path d="" fill="#404040" transform="translate(0,0)"/>
<path d="" fill="#202040" transform="translate(0,0)"/>
<path d="" fill="#000000" transform="translate(0,0)"/>
<path d="" fill="#404040" transform="translate(0,0)"/>
<path d="" fill="#550055" transform="translate(0,0)"/>
<path d="" fill="#2A2A2A" transform="translate(0,0)"/>
<path d="" fill="#400040" transform="translate(0,0)"/>
<path d="" fill="#400040" transform="translate(0,0)"/>
<path d="" fill="#000000" transform="translate(0,0)"/>
<path d="" fill="#000000" transform="translate(0,0)"/>
<path d="" fill="#000000" transform="translate(0,0)"/>
<path d="" fill="#000000" transform="translate(0,0)"/>
<path d="" fill="#000000" transform="translate(0,0)"/>
<path d="" fill="#000000" transform="translate(0,0)"/>
<path d="" fill="#000000" transform="translate(0,0)"/>
<path d="" fill="#000055" transform="translate(0,0)"/>
<path d="" fill="#404040" transform="translate(0,0)"/>
<path d="" fill="#000080" transform="translate(0,0)"/>
<path d="" fill="#000000" transform="translate(0,0)"/>
<path d="" fill="#000000" transform="translate(0,0)"/>
<path d="" fill="#333333" transform="translate(0,0)"/>
<path d="" fill="#402040" transform="translate(0,0)"/>
<path d="" fill="#404040" transform="translate(0,0)"/>
<path d="" fill="#400040" transform="translate(0,0)"/>
<path d="" fill="#000000" transform="translate(0,0)"/>
<path d="" fill="#000000" transform="translate(0,0)"/>
<path d="" fill="#000000" transform="translate(0,0)"/>
<path d="" fill="#000000" transform="translate(0,0)"/>
<path d="" fill="#000000" transform="translate(0,0)"/>
<path d="" fill="#404040" transform="translate(0,0)"/>
<path d="" fill="#555555" transform="translate(0,0)"/>
<path d="" fill="#2A2A55" transform="translate(0,0)"/>
<path d="" fill="#000000" transform="translate(0,0)"/>
<path d="" fill="#550055" transform="translate(0,0)"/>
<path d="" fill="#242424" transform="translate(0,0)"/>
<path d="" fill="#000000" transform="translate(0,0)"/>
<path d="" fill="#404040" transform="translate(0,0)"/>
<path d="" fill="#550000" transform="translate(0,0)"/>
<path d="" fill="#FFFFFF" transform="translate(0,0)"/>
<path d="" fill="#272727" transform="translate(0,0)"/>
<path d="" fill="#000000" transform="translate(0,0)"/>
<path d="" fill="#000000" transform="translate(0,0)"/>
<path d="" fill="#FFFFFF" transform="translate(0,0)"/>
<path d="" fill="#000055" transform="translate(0,0)"/>
<path d="" fill="#000000" transform="translate(0,0)"/>
<path d="" fill="#331A33" transform="translate(0,0)"/>
<path d="" fill="#2C1643" transform="translate(0,0)"/>
<path d="" fill="#800000" transform="translate(0,0)"/>
<path d="" fill="#2A2A2A" transform="translate(0,0)"/>
<path d="" fill="#404040" transform="translate(0,0)"/>
<path d="" fill="#550055" transform="translate(0,0)"/>
<path d="" fill="#000080" transform="translate(0,0)"/>
<path d="" fill="#000000" transform="translate(0,0)"/>
<path d="" fill="#391C39" transform="translate(0,0)"/>
<path d="" fill="#2A2A2A" transform="translate(0,0)"/>
<path d="" fill="#000000" transform="translate(0,0)"/>
<path d="" fill="#000000" transform="translate(0,0)"/>
<path d="" fill="#000100" transform="translate(0,0)"/>
<path d="" fill="#202020" transform="translate(0,0)"/>
<path d="" fill="#000000" transform="translate(0,0)"/>
<path d="" fill="#000055" transform="translate(0,0)"/>
<path d="" fill="#550055" transform="translate(0,0)"/>
<path d="" fill="#000000" transform="translate(0,0)"/>
<path d="" fill="#000000" transform="translate(0,0)"/>
<path d="" fill="#000000" transform="translate(0,0)"/>
<path d="" fill="#2A2A2A" transform="translate(0,0)"/>
<path d="" fill="#000000" transform="translate(0,0)"/>
<path d="" fill="#000000" transform="translate(0,0)"/>
<path d="" fill="#000055" transform="translate(0,0)"/>
<path d="" fill="#330033" transform="translate(0,0)"/>
<path d="" fill="#000000" transform="translate(0,0)"/>
<path d="" fill="#000080" transform="translate(0,0)"/>
<path d="" fill="#FFFFFF" transform="translate(0,0)"/>
<path d="" fill="#FFFFFF" transform="translate(0,0)"/>
<path d="" fill="#FFFFFF" transform="translate(0,0)"/>
<path d="" fill="#FFFFFF" transform="translate(0,0)"/>
<path d="" fill="#FFFFFF" transform="translate(0,0)"/>
<path d="" fill="#FFFFFF" transform="translate(0,0)"/>
<path d="" fill="#FFFFFF" transform="translate(0,0)"/>
<path d="" fill="#FFFFFF" transform="translate(0,0)"/>
<path d="" fill="#FFFFFF" transform="translate(0,0)"/>
<path d="" fill="#FFFFFF" transform="translate(0,0)"/>
<path d="" fill="#FFFFFF" transform="translate(0,0)"/>
<path d="" fill="#FFFFFF" transform="translate(0,0)"/>
<path d="" fill="#FFFFFF" transform="translate(0,0)"/>
<path d="" fill="#FFFFFF" transform="translate(0,0)"/>
<path d="" fill="#FFFFFF" transform="translate(0,0)"/>
<path d="" fill="#FFFFFF" transform="translate(0,0)"/>
<path d="" fill="#FFFFFF" transform="translate(0,0)"/>
<path d="" fill="#FFFFFF" transform="translate(0,0)"/>
<path d="" fill="#FFFFFF" transform="translate(0,0)"/>
<path d="" fill="#FFFFFF" transform="translate(0,0)"/>
<path d="" fill="#FFFFFF" transform="translate(0,0)"/>
<path d="" fill="#FFFFFF" transform="translate(0,0)"/>
<path d="" fill="#FFFFFF" transform="translate(0,0)"/>
<path d="" fill="#FFFFFF" transform="translate(0,0)"/>
<path d="" fill="#FFFFFF" transform="translate(0,0)"/>
<path d="" fill="#FFFFFF" transform="translate(0,0)"/>
<path d="" fill="#FFFFFF" transform="translate(0,0)"/>
<path d="" fill="#FFFFFF" transform="translate(0,0)"/>
<path d="" fill="#FFFFFF" transform="translate(0,0)"/>
<path d="" fill="#FFFFFF" transform="translate(0,0)"/>
<path d="" fill="#FFFFFF" transform="translate(0,0)"/>
<path d="" fill="#FFFFFF" transform="translate(0,0)"/>
<path d="" fill="#FFFFFF" transform="translate(0,0)"/>
<path d="" fill="#FFFFFF" transform="translate(0,0)"/>
<path d="" fill="#FFFFFF" transform="translate(0,0)"/>
<path d="" fill="#FFFFFF" transform="translate(0,0)"/>
<path d="" fill="#FFFFFF" transform="translate(0,0)"/>
<path d="" fill="#FFFFFF" transform="translate(0,0)"/>
<path d="" fill="#FFFFFF" transform="translate(0,0)"/>
<path d="" fill="#FFFFFF" transform="translate(0,0)"/>
<path d="" fill="#FFFFFF" transform="translate(0,0)"/>
<path d="" fill="#FFFFFF" transform="translate(0,0)"/>
<path d="" fill="#FFFFFF" transform="translate(0,0)"/>
<path d="" fill="#FFFFFF" transform="translate(0,0)"/>
</svg>
